<svg width="139" height="32" viewBox="0 0 139 32" fill="none" xmlns="http://www.w3.org/2000/svg">
<path d="M0 0H10.2687C32.6646 0 32.6181 31.5362 10.2687 31.5362H0V0ZM5.57575 5.56522V25.971H10.2687C24.9515 25.971 24.9515 5.56522 10.2687 5.56522H5.57575Z" fill="#101010"/>
<path d="M29.3326 20.4058C29.3326 13.4493 33.9791 8.8116 40.9488 8.8116C47.9185 8.8116 52.5649 13.4493 52.5649 20.4058C52.5649 27.3623 47.9185 32 40.9488 32C33.9791 32 29.3326 27.3623 29.3326 20.4058ZM46.9892 20.4522C46.9892 16.8348 44.573 14.4232 40.9488 14.4232C37.3246 14.4232 34.9084 16.8348 34.9084 20.4522C34.9084 24.0696 37.3246 26.4812 40.9488 26.4812C44.573 26.4812 46.9892 24.0696 46.9892 20.4522ZM43.7367 20.4522C43.7367 22.1217 42.6215 23.2348 40.9488 23.2348C39.2761 23.2348 38.1609 22.1217 38.1609 20.4522C38.1609 18.7826 39.2761 17.6696 40.9488 17.6696C42.6215 17.6696 43.7367 18.7826 43.7367 20.4522Z" fill="#101010"/>
<path d="M57.3882 9.6L60.7801 11.7333C62.3599 9.73913 64.5437 8.76522 66.7275 8.76522C69.3296 8.76522 71.9316 10.1565 73.4649 12.9391C74.9982 10.1565 77.6003 8.76522 80.2023 8.76522C84.2912 8.76522 88.3336 12.1507 88.3336 19.0145V31.5362H82.7578V19.0145C82.7578 15.6754 80.8063 14.0058 78.8083 14.0058C76.8568 14.0058 74.8589 15.6754 74.8589 19.0145V31.5362H69.2831V19.0145C69.2831 15.6754 67.3316 14.0058 65.3336 14.0058C63.3821 14.0058 61.3841 15.6754 61.3841 19.0145V31.5362H55.8084V10.4812C55.8084 9.64638 56.0407 9.27536 56.4589 9.27536C56.6912 9.27536 57.0165 9.36812 57.3882 9.6Z" fill="#101010"/>
<path d="M91.5861 4.68406C91.5861 3.01449 92.7012 1.90145 94.374 1.90145C96.0467 1.90145 97.1618 3.01449 97.1618 4.68406C97.1618 6.35362 96.0467 7.46667 94.374 7.46667C92.7012 7.46667 91.5861 6.35362 91.5861 4.68406ZM91.5861 31.5362V9.27536H97.1618V31.5362H91.5861Z" fill="#101010"/>
<path d="M101.991 9.64638L105.986 12.1507C107.938 9.92464 110.726 8.8116 113.514 8.8116V14.3768C110.494 14.3768 105.986 16.4174 105.986 20.4058V31.5362H100.411V10.5275C100.411 9.69275 100.643 9.32174 101.061 9.32174C101.294 9.32174 101.619 9.41449 101.991 9.64638Z" fill="#101010"/>
<path d="M139 20.4058V30.3304C139 31.1652 138.768 31.5362 138.349 31.5362C138.117 31.5362 137.792 31.4435 137.42 31.2116L133.75 28.8928C132.17 30.887 129.8 32 126.687 32C119.717 32 115.768 27.3623 115.768 20.4058C115.768 13.4493 120.414 8.8116 127.384 8.8116C134.354 8.8116 139 13.4493 139 20.4058ZM121.343 20.4058C121.343 24.0232 123.76 26.4348 127.384 26.4348C131.008 26.4348 133.424 24.0232 133.424 20.4058C133.424 16.7884 131.008 14.3768 127.384 14.3768C123.76 14.3768 121.343 16.7884 121.343 20.4058ZM124.596 20.4058C124.596 18.7362 125.711 17.6232 127.384 17.6232C129.057 17.6232 130.172 18.7362 130.172 20.4058C130.172 22.0754 129.057 23.1884 127.384 23.1884C125.711 23.1884 124.596 22.0754 124.596 20.4058Z" fill="#101010"/>
</svg>
