<svg width="1410" height="229" viewBox="0 0 1410 229" fill="none" xmlns="http://www.w3.org/2000/svg">
<path d="M131.513 0C157.342 0 178.905 3.06749 196.203 9.20246C213.501 15.3374 227.245 23.7141 237.434 34.3323C247.861 44.7146 255.206 56.7486 259.472 70.4343C263.974 84.12 266.225 98.5136 266.225 113.615C266.225 128.717 263.737 143.228 258.761 157.15C254.022 171.072 246.32 183.46 235.657 194.314C225.231 204.932 211.369 213.427 194.071 219.798C177.009 225.932 156.157 229 131.513 229H0V0H131.513ZM47.2736 188.651H130.447C147.508 188.651 161.607 186.645 172.744 182.634C184.118 178.386 193.123 172.723 199.758 165.644C206.393 158.566 211.132 150.543 213.975 141.576C216.819 132.61 218.241 123.29 218.241 113.615C218.241 103.941 216.819 94.7383 213.975 86.0077C211.132 77.2772 206.393 69.4905 199.758 62.6476C193.123 55.8047 184.118 50.3776 172.744 46.3663C161.607 42.355 147.508 40.3493 130.447 40.3493H47.2736V188.651Z" fill="white"/>
<path d="M410.501 228.261C388.226 228.261 368.559 224.721 351.498 217.642C334.673 210.563 321.522 200.299 312.044 186.849C302.565 173.164 297.826 156.41 297.826 136.59C297.826 116.769 302.565 100.016 312.044 86.3301C321.522 72.4084 334.673 61.9082 351.498 54.8293C368.559 47.7505 388.226 44.2111 410.501 44.2111C432.775 44.2111 452.206 47.7505 468.793 54.8293C485.617 61.9082 498.768 72.4084 508.247 86.3301C517.725 100.016 522.465 116.769 522.465 136.59C522.465 156.41 517.725 173.164 508.247 186.849C498.768 200.299 485.617 210.563 468.793 217.642C452.206 224.721 432.775 228.261 410.501 228.261ZM410.501 192.866C422.823 192.866 433.841 190.743 443.557 186.495C453.509 182.012 461.329 175.641 467.016 167.383C472.703 158.888 475.546 148.624 475.546 136.59C475.546 124.556 472.703 114.291 467.016 105.797C461.329 97.0663 453.628 90.4594 443.912 85.9762C434.197 81.4929 423.06 79.2513 410.501 79.2513C398.179 79.2513 387.042 81.4929 377.089 85.9762C367.137 90.4594 359.199 96.9484 353.275 105.443C347.588 113.938 344.744 124.32 344.744 136.59C344.744 148.624 347.588 158.888 353.275 167.383C358.962 175.641 366.781 182.012 376.734 186.495C386.686 190.743 397.942 192.866 410.501 192.866Z" fill="white"/>
<path d="M556.623 53.0912H602.83V229H556.623V53.0912ZM684.937 49.1978C695.837 49.1978 705.908 50.6136 715.15 53.4451C724.391 56.2767 732.448 60.6419 739.319 66.541C746.191 72.44 751.523 79.9907 755.314 89.1932C759.106 98.1597 761.001 108.896 761.001 121.402V229H714.794V129.542C714.794 114.677 711.121 103.823 703.775 96.9799C696.667 89.9011 684.937 86.3617 668.587 86.3617C656.265 86.3617 645.128 88.7213 635.175 93.4405C625.223 98.1597 617.166 104.177 611.005 111.491C604.844 118.57 601.29 126.003 600.342 133.79L599.987 115.739C601.172 107.48 603.896 99.4575 608.162 91.6708C612.427 83.8841 618.114 76.8052 625.223 70.4343C632.569 63.8274 641.218 58.6363 651.17 54.8609C661.122 51.0855 672.378 49.1978 684.937 49.1978ZM838.843 49.1978C849.743 49.1978 859.814 50.6136 869.055 53.4451C878.297 56.2767 886.353 60.6419 893.225 66.541C900.097 72.44 905.429 79.9907 909.22 89.1932C913.248 98.1597 915.263 108.896 915.263 121.402V229H869.055V129.542C869.055 114.677 865.382 103.823 858.037 96.9799C850.691 89.9011 838.843 86.3617 822.493 86.3617C810.171 86.3617 799.034 88.7213 789.081 93.4405C779.129 98.1597 771.072 104.177 764.911 111.491C758.75 118.57 755.314 126.003 754.603 133.79L753.893 114.677C755.077 106.89 757.921 99.1035 762.423 91.3168C766.925 83.5301 772.849 76.4513 780.195 70.0804C787.541 63.7094 796.071 58.6363 805.787 54.8609C815.739 51.0855 826.758 49.1978 838.843 49.1978Z" fill="white"/>
<path d="M960.031 53.0912H1006.24V229H960.031V53.0912Z" fill="white"/>
<path d="M1052.3 53.0912H1098.5V229H1052.3V53.0912ZM1166.39 90.9629C1153.12 90.9629 1141.63 93.5585 1131.91 98.7496C1122.2 103.705 1114.38 109.84 1108.46 117.155C1102.53 124.469 1098.38 131.548 1096.02 138.391L1095.66 118.924C1095.9 116.093 1096.84 111.963 1098.5 106.536C1100.16 100.873 1102.65 94.8562 1105.97 88.4853C1109.29 81.8784 1113.67 75.6254 1119.12 69.7264C1124.57 63.5914 1131.2 58.6363 1139.02 54.8609C1146.84 51.0855 1155.97 49.1978 1166.39 49.1978V90.9629Z" fill="white"/>
<path d="M1280.97 227.907C1263.44 227.907 1247.45 224.131 1232.99 216.58C1218.77 208.794 1207.4 198.058 1198.87 184.372C1190.57 170.45 1186.43 154.405 1186.43 136.236C1186.43 117.595 1190.69 101.432 1199.22 87.7459C1207.75 74.0602 1219.25 63.4419 1233.7 55.8912C1248.39 48.1044 1264.98 44.2111 1283.46 44.2111C1303.84 44.2111 1320.19 48.3404 1332.51 56.599C1345.07 64.6217 1354.2 75.5939 1359.88 89.5156C1365.57 103.437 1368.41 119.011 1368.41 136.236C1368.41 146.618 1366.75 157.236 1363.44 168.091C1360.12 178.709 1355.03 188.619 1348.15 197.822C1341.28 206.788 1332.28 214.103 1321.14 219.766C1310 225.193 1296.61 227.907 1280.97 227.907ZM1295.9 192.512C1309.88 192.512 1321.97 190.153 1332.16 185.434C1342.35 180.714 1350.17 174.108 1355.62 165.613C1361.07 157.118 1363.79 147.326 1363.79 136.236C1363.79 124.202 1360.95 114.056 1355.26 105.797C1349.81 97.3023 1341.99 90.9314 1331.8 86.6841C1321.85 82.2008 1309.88 79.9592 1295.9 79.9592C1276.24 79.9592 1260.95 85.1503 1250.05 95.5326C1239.15 105.679 1233.7 119.247 1233.7 136.236C1233.7 147.562 1236.31 157.472 1241.52 165.967C1246.73 174.226 1253.96 180.714 1263.2 185.434C1272.68 190.153 1283.58 192.512 1295.9 192.512ZM1363.79 48.1045H1410V224.013H1366.99C1366.99 224.013 1366.64 221.772 1365.93 217.288C1365.45 212.569 1364.98 206.67 1364.5 199.591C1364.03 192.512 1363.79 185.552 1363.79 178.709V48.1045Z" fill="white"/>
</svg>
