<svg width="147" height="24" viewBox="0 0 147 24" fill="none" xmlns="http://www.w3.org/2000/svg">
<path opacity="0.3" d="M69.457 0.806641C72.5531 0.806644 75.1364 1.12727 77.0156 1.97656C78.9326 2.84297 80.1272 4.26844 80.3643 6.39648L80.3867 6.64453C80.4692 7.86785 80.0959 8.89656 79.4238 9.73438C78.7176 10.6147 77.698 11.2656 76.584 11.7402C74.8143 12.4942 72.7176 12.8396 70.9912 12.918L80.7656 22.334L81.6582 23.1934H74.9463L74.8008 23.0488L65.248 13.6123L65.0986 13.4648V11.7754H65.5986C67.1907 11.7754 69.8117 11.4528 71.9541 10.5938C73.025 10.1643 73.9386 9.61526 74.5508 8.94043C75.15 8.27972 75.4643 7.49709 75.3594 6.53906V6.53711C75.2051 5.06321 74.6049 4.17401 73.667 3.62598C72.6896 3.05503 71.2839 2.81739 69.457 2.81738H64.9355V23.1934H59.833V0.806641H69.457ZM132.16 0.5L132.305 0.74707L145.043 22.4404L145.484 23.1934H139.913L139.769 22.9424L136.729 17.6475H125.283L123.024 22.8613L122.895 23.1631H117.87L118.307 22.4121L130.891 0.749023L131.035 0.5H132.16ZM88.3135 0.806641L88.4619 1.02441L99.3135 16.9141L111.783 0.998047L111.933 0.806641H114.636V23.1631H109.533V7.88574L100.732 18.9473L103.067 22.3818L103.599 23.1631H97.7363L97.5869 22.9453L87.3242 7.91895V23.1631H84.9766V4.46191L83.0127 1.58887L82.4785 0.806641H88.3135ZM126.156 15.6025L135.349 15.2119L130.192 6.22168L126.156 15.6025ZM54.8496 13.4092C54.8496 15.8335 54.2083 18.364 52.5039 20.2939C50.789 22.2357 48.0597 23.4999 44.0312 23.5C40.0321 23.5 37.2751 22.235 35.5234 20.2979C33.781 18.3708 33.0898 15.8413 33.0898 13.4092V0.806641H38.1924V13.5625C38.1924 15.4329 38.8013 17.1818 39.9883 18.458C41.1689 19.7272 42.959 20.5692 45.4082 20.5693C47.8718 20.5693 49.6377 19.721 50.791 18.4512C51.9518 17.173 52.5322 15.4231 52.5322 13.5625V10.1611C52.5321 9.96835 52.4764 9.71167 52.3691 9.44336C52.2639 9.17998 52.124 8.94103 51.9844 8.77637L45.834 1.97852L45.7051 1.83594V0.806641H50.9619L51.1113 0.976562L54.7246 5.08203L54.8496 5.22363V13.4092ZM28.1572 23.1934H25.9326V22.8857L7.76562 6.59277V23.1934H5.3877V4.4707L2.27734 1.67871L1.30566 0.806641H8.77344L8.91602 0.93457L25.9326 16.21V10.3457C25.9326 9.91669 25.7019 9.29589 25.4102 8.95508V8.9541L19.2871 1.84766L19.166 1.70703V0.806641H25.0059L25.1553 1.01562L28.0645 5.09082L28.1572 5.22168V23.1934Z" fill="#101010" stroke="#101010"/>
</svg>
