<svg width="138" height="39" viewBox="0 0 138 39" fill="none" xmlns="http://www.w3.org/2000/svg">
<g clip-path="url(#clip0_21666_59)">
<path opacity="0.3" d="M19.0965 9.95127C20.5061 11.9473 24.0058 13.7873 26.1475 10.7398C28.2892 7.69242 25.447 3.09673 22.6622 1.43581C20.0095 -0.141342 14.8734 -1.49607 12.6714 3.54157C10.2052 9.18003 16.883 13.5504 19.8803 16.8376C22.777 20.015 23.8651 25.2982 19.9463 27.9268C16.0275 30.5553 10.8971 27.0862 11.2617 22.9873C11.3393 22.1092 11.5546 21.338 11.8675 20.6823C13.7078 22.6783 15.571 24.498 17.529 24.1947C21.0516 23.6488 20.5492 18.9462 18.0113 17.2044C15.9701 15.8035 13.3891 15.9421 11.4972 17.2622C10.1737 15.4482 8.62623 13.7931 6.14001 13.3164C1.02402 12.3343 -2.84312 19.2033 2.7437 21.621C1.33408 18.8365 4.0471 15.8613 5.98211 16.049C7.35728 16.1819 8.70374 17.3258 10.0445 18.7152C7.93721 21.751 6.98119 28.3196 13.4207 31.0984C23.2191 35.3244 31.8377 22.0919 20.5549 13.0536C10.4837 4.98584 17.3682 1.39826 21.0774 3.3827C24.9446 5.44801 25.3609 9.79529 23.5838 10.269C21.8067 10.7427 20.0324 8.63987 21.3904 6.537C19.6678 4.17127 17.6811 7.95528 19.0936 9.95416L19.0965 9.95127ZM17.3194 18.6747C19.6707 20.2519 19.1855 24.4547 15.7892 22.3547C14.6408 21.6441 13.7508 20.4916 12.8781 19.2409C14.1441 17.9959 15.9098 17.7302 17.3194 18.6747Z" fill="#101010"/>
<path opacity="0.3" d="M136.344 20.1678C132.238 17.2553 128.365 20.7643 125.901 22.5232C124.676 23.396 123.373 24.8742 121.929 26.0014C121.727 21.6284 116.215 20.8871 115.067 24.3961C114.04 27.541 115.931 29.3086 118.365 29.4358C117.531 32.9711 114.474 37.0854 112.599 36.0897C109.899 34.6511 111.112 31.5018 114.126 24.0803C117.135 16.6588 119.212 13.5446 117.763 11.3515C116.486 9.41715 112.819 9.55751 110.626 9.5926C110.746 5.83361 106.026 3.90367 105.054 7.79863C104.431 10.2944 106.434 11.9261 108.588 12.8209C107.113 17.5711 101.787 26.155 99.0696 26.5541C96.3568 26.9489 96.3439 24.1724 97.0232 22.1021C97.2898 22.6942 97.9174 23.1372 98.5236 23.3215C99.5812 23.6417 102.238 23.282 104.624 18.8914C107.01 14.5008 104.586 10.7111 101.963 10.7506C99.3448 10.79 95.3938 14.3034 92.7326 21.7644C89.4093 28.7472 88.3517 25.633 90.699 20.0888C93.0464 14.5403 92.2253 11.2287 90.0327 11.0708C87.8443 10.9085 85.4196 12.3077 83.2657 16.6149C84.6715 8.91273 78.7687 10.7506 75.0155 16.3737C76.5804 11.0269 74.0352 9.71102 70.6732 10.9479C70.6732 10.9479 70.8667 13.7814 70.1272 17.1325C69.3835 20.4836 66.2536 25.0716 65.3551 24.9137C64.4566 24.7558 65.0026 21.9617 66.1762 17.4922C67.3499 13.0226 66.331 11.1892 64.65 11.1102C62.969 11.0313 61.4815 12.0664 58.7429 16.2553C59.0567 14.1016 58.4677 11.2681 56.9458 11.2681C55.4239 11.2681 53.5795 12.1059 50.9226 16.4965C51.5073 10.5927 48.8891 10.3909 46.2278 10.9918C46.6964 11.6322 46.5417 15.7816 46.2278 18.8124C45.8366 20.6459 44.3491 26.2339 42.3155 25.4356C40.282 24.6373 42.3155 16.3386 44.1126 11.4699C38.8719 10.6716 38.3259 13.9437 37.3843 21.6064C37.3843 21.6064 36.288 25.3567 34.9596 24.9575C33.6311 24.5584 34.8048 18.9703 35.3508 15.0622C35.8968 11.1497 31.3611 9.79436 29.6328 11.3909C29.6328 11.3909 30.4626 12.1892 30.5829 16.8562C30.699 21.5231 28.2743 26.3129 31.1719 29.1858C32.7283 30.7298 34.7317 29.7867 37.1565 25.2777C37.4015 27.6287 38.7601 29.6683 40.325 29.7473C41.8899 29.8262 43.73 27.9094 45.5271 24.8391C45.2906 27.9094 47.1307 30.028 49.9467 29.5499C49.478 28.949 49.5941 26.4795 50.2992 21.8477C50.2992 21.8477 51.2364 18.5756 53.1152 15.9833C54.994 13.3911 54.1341 18.4571 53.27 23.646C52.4101 28.8349 54.0911 29.9885 57.5348 29.7122C57.1823 28.8744 57.4574 25.4005 58.1625 20.0976C62.6208 13.1542 62.1522 14.6324 61.9931 16.9044C61.8383 19.1809 59.4136 26.4006 61.6793 28.7165C63.558 30.6333 65.6302 29.2341 68.8375 24.168C68.2528 27.5191 70.2476 29.835 73.4548 29.7166C73.1797 28.7604 72.8272 26.0848 73.9235 21.8959C73.9235 21.8959 75.4497 17.7466 77.7971 15.5929C80.1444 13.4393 77.681 17.3474 76.6234 23.8127C75.9398 27.9884 76.9372 29.9578 80.3766 29.6376C80.3766 29.6376 80.4153 27.1243 81.3525 23.5715C81.3525 23.5715 84.1298 16.1105 86.4772 14.8736C88.8246 13.6367 83.0765 23.6109 84.8736 27.2033C86.6707 30.7956 89.0567 29.9578 92.5391 25.2865C92.5004 26.1243 93.4763 30.2341 96.4901 29.9929C102.999 29.4753 107.741 19.0668 109.706 13.2288C110.824 13.5665 111.873 13.7113 112.488 13.6718C114.482 13.5534 113.077 16.3035 109.242 24.5233C105.411 32.7431 107.638 38.1293 112.212 38.568C116.236 38.9539 120.321 33.4712 121.567 28.699C124.091 27.462 126.778 24.9882 129.186 23.9618C132.195 22.6855 135.364 23.6417 134.818 27.5542C135.755 27.1155 140.45 23.0846 136.344 20.1722V20.1678ZM102.199 14.8604C102.905 15.1017 102.905 15.8166 101.262 18.9309C99.8349 21.6328 98.3216 21.6591 97.5133 20.9397C98.6526 18.6896 101.55 14.6411 102.199 14.8604ZM107.285 7.11877C108.313 6.56172 109.186 7.00473 109.113 9.50487C107.466 9.13643 106.189 7.7153 107.285 7.11877ZM117.883 25.5935C118.334 26.076 118.545 26.7603 118.575 27.5454C118.085 27.5893 117.582 27.5454 117.062 27.3875C114.891 26.7383 116.279 23.8741 117.883 25.5935Z" fill="#101010"/>
</g>
<defs>
<clipPath id="clip0_21666_59">
<rect width="138" height="39" fill="white"/>
</clipPath>
</defs>
</svg>
