<svg width="121" height="36" viewBox="0 0 121 36" fill="none" xmlns="http://www.w3.org/2000/svg">
<g opacity="0.3">
<path d="M4.72916 26.5882H0V0H14.1481C25.2616 0 25.2616 15.6078 14.1481 15.6078H11.0347L22.5029 26.5882H15.8033L4.72916 16V26.5882ZM4.72916 4.70588V10.902H14.1481C18.759 10.902 18.759 4.70588 14.1481 4.70588H4.72916Z" fill="#101010"/>
<path d="M42.604 17.1765V25.5686C42.604 26.2745 42.407 26.5882 42.0523 26.5882C41.8552 26.5882 41.5794 26.5098 41.2641 26.3137L38.1507 24.3529C36.8108 26.0392 34.8009 26.9804 32.1604 26.9804C26.249 26.9804 22.8992 23.0588 22.8992 17.1765C22.8992 11.2941 26.8401 7.37255 32.7516 7.37255C38.663 7.37255 42.604 11.2941 42.604 17.1765ZM27.6283 17.1765C27.6283 20.2353 29.6776 22.2745 32.7516 22.2745C35.8255 22.2745 37.8748 20.2353 37.8748 17.1765C37.8748 14.1176 35.8255 12.0784 32.7516 12.0784C29.6776 12.0784 27.6283 14.1176 27.6283 17.1765ZM30.387 17.1765C30.387 15.7647 31.3328 14.8235 32.7516 14.8235C34.1703 14.8235 35.1162 15.7647 35.1162 17.1765C35.1162 18.5882 34.1703 19.5294 32.7516 19.5294C31.3328 19.5294 30.387 18.5882 30.387 17.1765Z" fill="#101010"/>
<path d="M44.5668 26.5882V0H49.296V26.5882H44.5668Z" fill="#101010"/>
<path d="M51.2634 3.88235C51.2634 2.47059 52.2092 1.52941 53.6279 1.52941C55.0467 1.52941 55.9925 2.47059 55.9925 3.88235C55.9925 5.29412 55.0467 6.23529 53.6279 6.23529C52.2092 6.23529 51.2634 5.29412 51.2634 3.88235ZM51.2634 26.5882V7.76471H55.9925V26.5882H51.2634Z" fill="#101010"/>
<path d="M73.1721 9.88235L76.3248 7.92157C76.6401 7.72549 76.916 7.64706 77.113 7.64706C77.4677 7.64706 77.6648 7.96078 77.6648 8.66667V26.9804C77.6648 33.5686 72.108 36 67.7335 36V31.2941C70.2952 31.2941 72.9356 30.3529 72.9356 26.9804V25.7647C71.4774 26.549 69.7434 26.9804 67.8123 26.9804C61.9009 26.9804 57.9599 23.0588 57.9599 17.1765C57.9599 11.2941 61.3097 7.37255 67.2212 7.37255C69.8222 7.37255 71.7927 8.27451 73.1721 9.88235ZM62.6891 17.1765C62.6891 20.2353 64.7384 22.2745 67.8123 22.2745C70.8863 22.2745 72.9356 20.2353 72.9356 17.1765C72.9356 14.1176 70.8863 12.0784 67.8123 12.0784C64.7384 12.0784 62.6891 14.1176 62.6891 17.1765ZM65.4478 17.1765C65.4478 15.7647 66.3936 14.8235 67.8123 14.8235C69.2311 14.8235 70.1769 15.7647 70.1769 17.1765C70.1769 18.5882 69.2311 19.5294 67.8123 19.5294C66.3936 19.5294 65.4478 18.5882 65.4478 17.1765Z" fill="#101010"/>
<path d="M79.6275 17.1765C79.6275 11.2941 83.5685 7.37255 89.48 7.37255C95.3914 7.37255 99.3324 11.2941 99.3324 17.1765C99.3324 23.0588 95.3914 26.9804 89.48 26.9804C83.5685 26.9804 79.6275 23.0588 79.6275 17.1765ZM94.6032 17.2157C94.6032 14.1569 92.5539 12.1176 89.48 12.1176C86.406 12.1176 84.3567 14.1569 84.3567 17.2157C84.3567 20.2745 86.406 22.3137 89.48 22.3137C92.5539 22.3137 94.6032 20.2745 94.6032 17.2157ZM91.8445 17.2157C91.8445 18.6275 90.8987 19.5686 89.48 19.5686C88.0612 19.5686 87.1154 18.6275 87.1154 17.2157C87.1154 15.8039 88.0612 14.8627 89.48 14.8627C90.8987 14.8627 91.8445 15.8039 91.8445 17.2157Z" fill="#101010"/>
<path d="M102.635 8.03922L106.024 10.1569C107.68 8.27451 110.005 7.33333 112.33 7.33333C116.665 7.33333 121 10.6275 121 17.1765V26.5882H116.271V17.1765C116.271 13.7647 113.709 12.0392 111.148 12.0392C108.586 12.0392 106.024 13.7647 106.024 17.1765V26.5882H101.295V8.78431C101.295 8.07843 101.492 7.76471 101.847 7.76471C102.044 7.76471 102.32 7.84314 102.635 8.03922Z" fill="#101010"/>
</g>
</svg>
