<svg width="137" height="29" viewBox="0 0 137 29" fill="none" xmlns="http://www.w3.org/2000/svg">
<g opacity="0.3">
<path d="M23.4943 8.18342C23.4943 10.7792 21.3825 12.8911 18.7427 12.8911C21.3825 12.8911 23.4943 15.0469 23.4943 17.6427V27.982H18.5667V16.6748H8.3594L4.92765 12.8911H18.5667V3.78373H8.3594L4.92765 0H18.7427C21.3825 0 23.4943 2.11185 23.4943 4.70766V8.18342ZM0 0H4.92765V27.938H0V0Z" fill="#101010"/>
<path d="M46.5772 0.0879952C49.217 0.0879952 51.3289 2.19984 51.3289 4.79566V23.2743C51.3289 25.9581 49.085 28.114 46.4012 27.982V3.87172H36.3259L32.8502 0.0879952H46.5772ZM32.8502 24.1983H42.9695L46.4012 27.982H32.6742C30.0344 27.982 27.9225 25.8702 27.9225 23.2743V4.79566C27.9225 2.11185 30.1664 -0.0439963 32.8502 0.0879952V24.1983Z" fill="#101010"/>
<path d="M71.6451 12.9791C74.5489 12.9791 77.0127 15.0029 77.6287 17.8187L79.8285 28.07H74.8569L71.6451 12.9791L74.8569 0.0879952H79.8285L77.8047 8.18342C77.1007 10.9992 74.5489 12.9791 71.6451 12.9791ZM62.9777 12.9791H71.6451L69.2253 16.7628H62.1858L59.7659 28.07H54.7943L56.9941 17.8187C57.6101 15.0029 60.0739 13.0231 62.9337 12.9791H62.9777ZM54.7943 0.0879952H59.7659L62.9777 12.9791C60.0739 12.9791 57.5221 10.9992 56.8182 8.18342L54.7943 0.0879952Z" fill="#101010"/>
<path d="M82.7773 3.87172V0.0879952H92.5446L89.1129 3.87172H82.7773ZM97.4723 0.0879952H107.284V3.87172H100.948L97.4723 0.0879952ZM97.4723 27.982H92.5446V0.0879952H97.4723V27.982Z" fill="#101010"/>
<path d="M111.495 0.0879952H116.423V27.982H111.495V0.0879952ZM132.217 0.0879952C134.857 0.0879952 136.969 2.19984 136.969 4.79566V27.982H132.041V17.8187C128.786 17.8187 123.11 17.8187 119.854 17.8187L116.423 14.035H132.041V3.87172C128.786 3.87172 123.11 3.87172 119.854 3.87172L116.423 0.0879952H132.217Z" fill="#101010"/>
</g>
</svg>
