<svg width="133" height="26" viewBox="0 0 133 26" fill="none" xmlns="http://www.w3.org/2000/svg">
<g opacity="0.3">
<path d="M0 0H5.41525V10.3215L13.0643 0H19.5626L11.8459 10.4227H12.9289C17.4303 10.4227 19.6641 12.8176 19.6641 17.6073V25.2979H14.2489V18.2482C14.2489 17.0002 13.5381 15.8196 12.2182 15.8196H5.41525V25.2979H0V0Z" fill="#101010"/>
<path d="M35.9051 9.47827L31.4714 13.5597C30.9299 12.8513 30.456 12.4803 29.4407 12.4803C28.3238 12.4803 26.7669 13.5934 26.7669 15.7521V25.2979H21.3516V7.99413H26.4284L26.6654 8.70247C27.6469 7.75801 29.0345 7.31952 30.7945 7.31952C32.9606 7.31952 34.7206 7.99413 35.9051 9.47827Z" fill="#101010"/>
<path d="M49.5673 19.53L53.4257 23.409C46.6566 28.5023 35.9276 26.0062 35.9276 16.6291C35.9276 11.0636 39.7183 7.31952 45.3028 7.31952C50.8873 7.31952 54.6779 11.0636 54.6779 16.6291C54.6779 17.27 54.6441 18.2145 54.5426 18.7879H41.8167C43.3059 21.3177 47.5027 21.2165 49.5673 19.53ZM41.7829 14.5378H48.8227C48.1796 13.3235 46.9273 12.6152 45.3028 12.6152C43.6782 12.6152 42.4259 13.3235 41.7829 14.5378Z" fill="#101010"/>
<path d="M56.3538 25.2979V1.68652H61.7691V25.2979H56.3538Z" fill="#101010"/>
<path d="M63.46 25.2979V1.68652H68.8753V25.2979H63.46Z" fill="#101010"/>
<path d="M86.9135 21.5875V25.2979H81.8367L81.4982 24.3534C80.5167 25.2979 79.0614 25.9725 76.7937 25.9725C73.1046 25.9725 70.5662 24.151 70.5662 20.5756C70.5662 13.0874 81.4982 16.3256 81.4982 13.3573C81.4982 12.7164 80.9229 12.2442 79.6029 12.2442C78.2491 12.2442 77.6399 12.7164 77.6399 13.2898H71.92C71.92 8.50008 76.083 7.31952 79.5014 7.31952C82.8859 7.31952 86.9135 8.50008 86.9135 13.2561C86.9135 20.5756 75.9138 17.2363 75.9138 20.5756C75.9138 21.4189 76.6245 21.8911 77.7753 21.8911C79.6367 21.8911 81.8028 18.7879 84.0705 18.7879C85.9997 18.7879 86.9135 19.6986 86.9135 21.5875Z" fill="#101010"/>
<path d="M94.0279 25.2979H88.6126V7.99413H94.0279V25.2979ZM88.6126 3.94647C88.6126 2.3274 89.6957 1.24803 91.3203 1.24803C92.9448 1.24803 94.0279 2.3274 94.0279 3.94647C94.0279 5.56553 92.9448 6.64491 91.3203 6.64491C89.6957 6.64491 88.6126 5.56553 88.6126 3.94647Z" fill="#101010"/>
<path d="M95.7188 16.6629C95.7188 11.0636 99.5095 7.31952 105.094 7.31952C110.678 7.31952 114.469 11.0636 114.469 16.6629C114.469 22.2284 110.678 25.9725 105.094 25.9725C99.5095 25.9725 95.7188 22.2284 95.7188 16.6629ZM101.066 16.7303C101.066 19.1252 102.691 20.7443 105.094 20.7443C107.497 20.7443 109.122 19.1252 109.122 16.7303C109.122 14.3355 107.497 12.7164 105.094 12.7164C102.691 12.7164 101.066 14.3355 101.066 16.7303Z" fill="#101010"/>
<path d="M133 15.2799V25.3653H127.585V15.8871C127.585 13.6271 126.4 12.4803 124.573 12.4803C122.779 12.4803 121.56 13.5934 121.56 15.7521V25.2979H116.145V7.99413H121.222L121.56 9.00604C122.711 7.8592 124.336 7.31952 126.265 7.31952C130.326 7.31952 133 9.71438 133 15.2799Z" fill="#101010"/>
</g>
</svg>
