<?xml version="1.0" standalone="no"?>
<!DOCTYPE svg PUBLIC "-//W3C//DTD SVG 1.1//EN" "http://www.w3.org/Graphics/SVG/1.1/DTD/svg11.dtd" >
<svg xmlns="http://www.w3.org/2000/svg">
<metadata>Generated by IcoMoon</metadata>
<defs>
<font id="icomoon" horiz-adv-x="1024">
<font-face units-per-em="1024" ascent="960" descent="-64" />
<missing-glyph horiz-adv-x="1024" />
<glyph unicode="&#x20;" horiz-adv-x="512" d="" />
<glyph unicode="&#xe900;" glyph-name="Apartments" d="M921.6 55.46c0 4.526-1.797 8.868-4.997 12.068s-7.542 4.997-12.068 4.997h-42.772v528.947c0 5.974-3.241 11.434-8.192 14.506l-331.602 238.422c-5.975 4.266-13.997 4.266-19.97 0l-332.288-238.934c-2.442-1.672-4.404-3.953-5.691-6.618s-1.855-5.62-1.648-8.571v-527.753h-42.906c-4.526 0-8.867-1.797-12.068-4.997s-4.999-7.542-4.999-12.068c0-4.526 1.798-8.868 4.999-12.068s7.542-5.002 12.068-5.002h785.069c4.526 0 8.868 1.802 12.068 5.002s4.997 7.542 4.997 12.068zM639.35 539.469c0 4.527 1.802 8.867 5.002 12.068s7.542 4.999 12.068 4.999h114.806c4.526 0 8.868-1.798 12.068-4.999s4.997-7.541 4.997-12.068v-69.359c0-4.526-1.797-8.867-4.997-12.068s-7.542-4.999-12.068-4.999h-114.806c-4.526 0-8.868 1.798-12.068 4.999s-5.002 7.542-5.002 12.068v69.359zM511.966 710.818c32.941 0 59.734-26.812 59.734-59.734s-26.793-59.734-59.734-59.734c-32.938 0-59.733 26.795-59.733 59.734s26.794 59.734 59.733 59.734zM437.538 539.469c0 4.527 1.798 8.867 4.999 12.068s7.542 4.999 12.068 4.999h114.806c4.526 0 8.868-1.798 12.068-4.999s5.002-7.541 5.002-12.068v-69.359c0-4.526-1.802-8.867-5.002-12.068s-7.542-4.999-12.068-4.999h-114.806c-4.526 0-8.867 1.798-12.068 4.999s-4.999 7.542-4.999 12.068v69.359zM235.708 539.469c0 4.527 1.798 8.867 4.999 12.068s7.541 4.999 12.068 4.999h114.807c4.527 0 8.867-1.798 12.068-4.999s4.999-7.541 4.999-12.068v-69.359c0-4.526-1.798-8.867-4.999-12.068s-7.542-4.999-12.068-4.999h-114.807c-4.527 0-8.867 1.798-12.068 4.999s-4.999 7.542-4.999 12.068v69.359zM228.642 382.899c0 4.526 1.798 8.868 4.999 12.068s7.541 4.997 12.068 4.997h201.83c4.527 0 8.867-1.797 12.068-4.997s4.999-7.542 4.999-12.068v-201.815c0-4.526-1.798-8.868-4.999-12.068s-7.541-4.997-12.068-4.997h-201.83c-4.527 0-8.867 1.797-12.068 4.997s-4.999 7.542-4.999 12.068v201.815zM522.614 382.899c0 4.526 1.802 8.868 5.002 12.068s7.542 4.997 12.068 4.997h211.866c4.526 0 8.868-1.797 12.068-4.997s4.997-7.542 4.997-12.068v-310.359h-246.001v310.359z" />
<glyph unicode="&#xe901;" glyph-name="ArowRight" d="M309.526 74.886c-13.365 13.19-14.58 33.837-3.645 48.384l3.645 4.166 324.735 320.563-324.735 320.562c-13.365 13.193-14.58 33.838-3.645 48.386l3.645 4.168c13.366 13.193 34.28 14.392 49.019 3.598l4.222-3.598 351.37-346.838c13.37-13.193 14.586-33.838 3.648-48.386l-3.648-4.168-351.37-346.836c-14.702-14.515-38.539-14.515-53.241 0z" />
<glyph unicode="&#xe902;" glyph-name="ArrowCounterClockwise" d="M896 448.007c0.010-100.958-39.736-197.854-110.638-269.718-70.902-71.869-167.255-112.927-268.201-114.284h-5.161c-98.071-0.241-192.468 37.289-263.6 104.801-3.055 2.888-5.51 6.354-7.226 10.189-1.717 3.84-2.66 7.977-2.777 12.18s0.595 8.387 2.095 12.314c1.5 3.927 3.76 7.521 6.648 10.578s6.352 5.509 10.19 7.224c3.838 1.72 7.976 2.662 12.179 2.78s8.388-0.594 12.315-2.094c3.928-1.5 7.521-3.763 10.576-6.651 45.752-43.146 103.203-71.859 165.177-82.545 61.975-10.685 125.724-2.872 183.283 22.461s106.378 67.067 140.36 119.982c33.976 52.92 51.615 114.678 50.698 177.56s-20.337 124.1-55.844 176.007c-35.507 51.907-85.519 92.202-143.79 115.85s-122.222 29.603-183.858 17.118c-61.637-12.484-118.229-42.853-162.706-87.314-0.327-0.353-0.674-0.688-1.040-1l-106.32-97.44h109.64c8.487 0 16.626-3.371 22.627-9.373s9.373-14.14 9.373-22.627c0-8.487-3.372-16.626-9.373-22.627s-14.14-9.373-22.627-9.373h-192c-8.487 0-16.626 3.372-22.627 9.373s-9.373 14.14-9.373 22.627v192c0 8.487 3.372 16.626 9.373 22.627s14.14 9.373 22.627 9.373c8.487 0 16.626-3.372 22.627-9.373s9.373-14.14 9.373-22.627v-119.2l113 103.2c53.759 53.551 122.179 89.973 196.621 104.671 74.44 14.697 151.573 7.011 221.65-22.090s129.961-78.311 172.093-141.418c42.132-63.108 64.625-137.283 64.635-213.162z" />
<glyph unicode="&#xe904;" glyph-name="ArrowsLeftRight" d="M854.663 233.34l-128-128c-6.001-6.001-14.146-9.377-22.638-9.377s-16.636 3.376-22.641 9.377c-6.005 6.005-9.377 14.149-9.377 22.641s3.372 16.636 9.377 22.641l73.403 73.359h-562.762c-8.487 0-16.626 3.372-22.627 9.373s-9.373 14.139-9.373 22.627c0 8.488 3.372 16.625 9.373 22.627s14.14 9.373 22.627 9.373h562.762l-73.403 73.359c-6.005 6.005-9.377 14.149-9.377 22.641s3.372 16.636 9.377 22.641c6.005 6.005 14.149 9.377 22.641 9.377s16.636-3.372 22.638-9.377l128-128c2.977-2.973 5.336-6.502 6.949-10.386 1.609-3.884 2.439-8.049 2.439-12.255s-0.83-8.368-2.439-12.255c-1.613-3.884-3.972-7.413-6.949-10.386zM297.385 489.34c6.005-6.001 14.148-9.377 22.64-9.377s16.635 3.376 22.64 9.377c6.005 6.005 9.378 14.149 9.378 22.641s-3.373 16.636-9.378 22.641l-73.4 73.359h562.76c8.485 0 16.625 3.372 22.627 9.373s9.373 14.141 9.373 22.627c0 8.487-3.372 16.626-9.373 22.627s-14.142 9.373-22.627 9.373h-562.76l73.4 73.36c6.005 6.005 9.378 14.148 9.378 22.64s-3.373 16.636-9.378 22.64c-6.005 6.004-14.148 9.378-22.64 9.378s-16.636-3.373-22.64-9.378l-128-128c-2.975-2.972-5.336-6.501-6.946-10.386s-2.439-8.049-2.439-12.254c0-4.205 0.829-8.369 2.439-12.254s3.971-7.414 6.946-10.386l128-128.002z" />
<glyph unicode="&#xe905;" glyph-name="Bathtub" d="M928 575.999h-96c0 8.487-3.371 16.626-9.374 22.627-5.999 6.001-14.14 9.373-22.626 9.373h-256c-8.486 0-16.627-3.372-22.626-9.373-6.003-6.001-9.374-14.141-9.374-22.627h-256v176c0 12.73 5.057 24.939 14.059 33.941s21.211 14.059 33.941 14.059c11.25 0.046 22.184-3.722 31.017-10.688s15.046-16.721 17.623-27.672c1.758-8.247 6.7-15.466 13.751-20.090s15.642-6.277 23.906-4.601c8.264 1.676 15.532 6.546 20.225 13.551s6.432 15.58 4.838 23.86c-5.433 25.463-19.472 48.278-39.754 64.605s-45.569 25.167-71.606 25.036c-29.704 0-58.192-11.8-79.196-32.804s-32.804-49.492-32.804-79.196v-176h-96c-16.974 0-33.253-6.743-45.255-18.745s-18.745-28.281-18.745-45.254v-128c0.064-59.392 23.684-116.331 65.678-158.323s98.933-65.613 158.322-65.677v-64c0-8.486 3.372-16.627 9.373-22.63 6.001-5.999 14.141-9.37 22.627-9.37s16.626 3.371 22.627 9.37c6.001 6.003 9.373 14.144 9.373 22.63v64h384v-64c0-8.486 3.371-16.627 9.374-22.63 5.999-5.999 14.14-9.37 22.626-9.37s16.627 3.371 22.626 9.37c6.003 6.003 9.374 14.144 9.374 22.63v64c59.388 0.064 116.326 23.684 158.323 65.677 41.993 41.993 65.613 98.931 65.677 158.323v128c0 16.973-6.741 33.251-18.743 45.254s-28.284 18.745-45.257 18.745zM768 543.999v-127.999h-192v127.999h192zM928 384c0-21.013-4.139-41.818-12.181-61.231-8.038-19.413-19.823-37.052-34.679-51.908-14.861-14.857-32.499-26.641-51.908-34.684-19.413-8.038-40.218-12.177-61.231-12.177h-512c-42.435 0-83.131 16.858-113.137 46.861-30.006 30.007-46.863 70.703-46.863 113.139v128h416v-128c0-8.486 3.371-16.627 9.374-22.63 5.999-5.999 14.14-9.37 22.626-9.37h256c8.486 0 16.627 3.371 22.626 9.37 6.003 6.003 9.374 14.144 9.374 22.63v128h96v-128z" />
<glyph unicode="&#xe906;" glyph-name="Bed" d="M832 672h-736v96c0 8.487-3.372 16.626-9.373 22.627s-14.141 9.373-22.627 9.373c-8.487 0-16.626-3.372-22.627-9.373s-9.373-14.141-9.373-22.627v-640c0-8.486 3.371-16.627 9.373-22.626 6.001-6.003 14.141-9.374 22.627-9.374s16.626 3.371 22.627 9.374c6.001 5.999 9.373 14.14 9.373 22.626v128h832v-128c0-8.486 3.371-16.627 9.374-22.626 5.999-6.003 14.14-9.374 22.626-9.374s16.627 3.371 22.626 9.374c6.003 5.999 9.374 14.14 9.374 22.626v384c0 42.435-16.858 83.131-46.865 113.137-30.003 30.006-70.699 46.863-113.135 46.863zM96 608h288v-288h-288v288zM448 320v288h384c25.459 0 49.877-10.114 67.883-28.118 18.001-18.004 28.117-42.421 28.117-67.882v-192h-480z" />
<glyph unicode="&#xe907;" glyph-name="CalendarBlank" d="M832 832h-96v32c0 8.487-3.371 16.626-9.374 22.627-5.999 6.001-14.14 9.373-22.626 9.373s-16.627-3.372-22.626-9.373c-6.003-6.001-9.374-14.141-9.374-22.627v-32h-320v32c0 8.487-3.372 16.626-9.373 22.627s-14.141 9.373-22.627 9.373c-8.487 0-16.626-3.372-22.627-9.373s-9.373-14.141-9.373-22.627v-32h-96c-16.974 0-33.253-6.743-45.255-18.745s-18.745-28.281-18.745-45.255v-640c0-16.973 6.743-33.254 18.745-45.257s28.281-18.743 45.255-18.743h640c16.973 0 33.254 6.741 45.257 18.743s18.743 28.284 18.743 45.257v640c0 16.974-6.741 33.253-18.743 45.255s-28.284 18.745-45.257 18.745zM288 768v-32c0-8.487 3.372-16.626 9.373-22.627s14.141-9.373 22.627-9.373c8.487 0 16.626 3.372 22.627 9.373s9.373 14.141 9.373 22.627v32h320v-32c0-8.487 3.371-16.626 9.374-22.627 5.999-6.001 14.14-9.373 22.626-9.373s16.627 3.372 22.626 9.373c6.003 6.001 9.374 14.141 9.374 22.627v32h96v-128h-640v128h96zM832 128h-640v448h640v-448z" />
<glyph unicode="&#xe908;" glyph-name="CaretDown" d="M866.086 542.127l-320.003-320.002c-4.46-4.474-9.758-8.026-15.592-10.445-5.835-2.426-12.090-3.674-18.408-3.674s-12.573 1.248-18.407 3.674c-5.835 2.419-11.133 5.971-15.593 10.445l-320 320.002c-9.018 9.018-14.083 21.247-14.083 34s5.066 24.982 14.083 34c9.018 9.018 21.247 14.083 34 14.083s24.982-5.066 34-14.083l286.040-286.040 286.040 286.079c9.018 9.018 21.248 14.084 34.003 14.084 12.749 0 24.979-5.066 33.997-14.084s14.086-21.247 14.086-34c0-12.752-5.069-24.982-14.086-34l-0.077-0.040z" />
<glyph unicode="&#xe909;" glyph-name="CaretLeft" d="M662.662 150.624c2.976-2.976 5.331-6.502 6.944-10.387 1.606-3.885 2.438-8.051 2.438-12.256s-0.832-8.365-2.438-12.25c-1.613-3.885-3.968-7.418-6.944-10.387-2.97-2.976-6.502-5.331-10.387-6.944-3.885-1.606-8.045-2.438-12.25-2.438s-8.369 0.832-12.253 2.438c-3.885 1.613-7.414 3.968-10.388 6.944l-320 319.998c-2.975 2.972-5.335 6.501-6.946 10.386s-2.439 8.049-2.439 12.254c0 4.205 0.829 8.369 2.439 12.254s3.971 7.414 6.946 10.386l320 320c6.004 6.004 14.148 9.378 22.641 9.378s16.634-3.373 22.637-9.378c6.010-6.004 9.382-14.148 9.382-22.64s-3.373-16.636-9.382-22.64l-297.397-297.36 297.397-297.358z" />
<glyph unicode="&#xe90a;" glyph-name="CaretRight" d="M726.656 425.342l-319.998-319.998c-2.973-2.976-6.503-5.331-10.387-6.944-3.885-1.606-8.048-2.438-12.253-2.438s-8.368 0.832-12.253 2.438c-3.885 1.613-7.414 3.968-10.387 6.944-2.973 2.97-5.332 6.502-6.941 10.387s-2.437 8.045-2.437 12.25c0 4.205 0.828 8.371 2.437 12.256s3.967 7.411 6.941 10.387l297.4 297.358-297.4 297.36c-6.004 6.004-9.378 14.148-9.378 22.64s3.373 16.636 9.378 22.64c6.004 6.004 14.148 9.378 22.64 9.378s16.636-3.373 22.64-9.378l319.998-320c2.976-2.972 5.338-6.501 6.95-10.386 1.606-3.885 2.438-8.049 2.438-12.254s-0.832-8.369-2.438-12.254c-1.613-3.885-3.974-7.414-6.95-10.386z" />
<glyph unicode="&#xe90b;" glyph-name="ChatCircleDots" d="M560 447.969c0-9.492-2.816-18.77-8.090-26.665s-12.769-14.049-21.54-17.679c-8.771-3.635-18.424-4.582-27.735-2.734-9.311 1.853-17.864 6.426-24.577 13.138s-11.284 15.268-13.137 24.576c-1.852 9.313-0.901 18.964 2.732 27.735s9.785 16.268 17.679 21.542c7.894 5.274 17.174 8.090 26.668 8.090 12.728 0 24.94-5.058 33.94-14.059s14.060-21.211 14.060-33.943zM336 495.971c-9.494 0-18.774-2.815-26.668-8.090s-14.046-12.771-17.679-21.542c-3.633-8.771-4.583-18.421-2.732-27.735 1.852-9.308 6.424-17.864 13.137-24.576s15.265-11.284 24.577-13.138c9.311-1.848 18.962-0.901 27.734 2.734 8.771 3.63 16.267 9.784 21.541 17.679s8.090 17.172 8.090 26.665c0 12.732-5.057 24.941-14.059 33.943s-21.211 14.059-33.941 14.059zM688 495.971c-9.492 0-18.775-2.815-26.665-8.090-7.895-5.274-14.049-12.771-17.679-21.542-3.635-8.771-4.588-18.421-2.734-27.735 1.853-9.308 6.426-17.864 13.138-24.576s15.263-11.284 24.576-13.138c9.313-1.848 18.964-0.901 27.735 2.734 8.771 3.63 16.266 9.784 21.54 17.679s8.090 17.172 8.090 26.665c0 12.732-5.059 24.941-14.060 33.943s-21.212 14.059-33.94 14.059zM928 447.969c0.015-71.818-18.565-142.423-53.929-204.933s-86.313-114.801-147.881-151.777c-61.573-36.982-131.666-57.39-203.464-59.238-71.798-1.853-142.852 14.915-206.246 48.671l-136.2-45.399c-11.276-3.763-23.377-4.306-34.947-1.577s-22.15 8.627-30.555 17.034c-8.406 8.407-14.304 18.985-17.034 30.556-2.73 11.566-2.185 23.67 1.576 34.944l45.4 136.202c-29.674 55.788-46.248 117.606-48.464 180.762-2.216 63.151 9.984 125.979 35.675 183.712s64.196 108.856 112.594 149.486c48.398 40.63 105.416 69.701 166.726 85.005s125.3 16.44 187.113 3.32c61.819-13.119 119.828-40.148 169.641-79.036 49.807-38.888 90.102-88.611 117.827-145.397 27.72-56.785 42.143-119.141 42.168-182.333zM864 447.969c-0.015 53.997-12.452 107.264-36.347 155.684-23.9 48.419-58.614 90.692-101.463 123.548-42.844 32.856-92.677 55.414-145.638 65.93s-107.632 8.706-159.782-5.288c-52.15-13.994-100.382-39.798-140.963-75.416s-72.425-80.093-93.067-129.987c-20.642-49.893-29.53-103.867-25.975-157.746s19.457-106.214 46.476-152.965c2.268-3.922 3.676-8.284 4.131-12.795s-0.053-9.062-1.491-13.363l-49.88-149.601 149.6 49.879c3.258 1.111 6.677 1.679 10.12 1.684 5.62-0.010 11.139-1.5 16-4.321 53.512-30.961 114.234-47.283 176.058-47.324 61.821-0.036 122.565 16.21 176.115 47.099 53.555 30.894 98.022 75.346 128.937 128.886s47.186 114.273 47.171 176.097z" />
<glyph unicode="&#xe90c;" glyph-name="CheckCircle" d="M694.639 566.64c2.978-2.972 5.338-6.502 6.946-10.386 1.613-3.885 2.441-8.049 2.441-12.254s-0.828-8.369-2.441-12.254c-1.609-3.887-3.968-7.415-6.946-10.385l-224-224c-2.97-2.978-6.498-5.338-10.385-6.946-3.883-1.613-8.047-2.441-12.254-2.441s-8.371 0.828-12.254 2.441c-3.883 1.609-7.415 3.968-10.386 6.946l-96 96c-6.004 6.003-9.378 14.148-9.378 22.639s3.373 16.636 9.378 22.639c6.004 6.007 14.148 9.378 22.64 9.378s16.636-3.371 22.64-9.378l73.36-73.399 201.361 201.401c2.97 2.975 6.502 5.335 10.385 6.946s8.047 2.439 12.254 2.439c4.207 0 8.371-0.829 12.254-2.439 3.887-1.61 7.415-3.971 10.385-6.946zM928 448c0-82.278-24.397-162.705-70.11-231.117-45.709-68.412-110.682-121.732-186.692-153.216-76.015-31.488-159.659-39.727-240.354-23.676-80.697 16.051-154.821 55.671-213 113.852s-97.799 132.305-113.85 213.001c-16.052 80.695-7.814 164.339 23.673 240.352s84.806 140.985 153.216 186.695c68.411 45.711 148.839 70.109 231.117 70.109 110.293-0.116 216.038-43.983 294.029-121.972s121.856-183.734 121.971-294.028zM864 448c0 69.619-20.646 137.675-59.324 195.561s-93.653 103.003-157.973 129.645c-64.316 26.642-135.091 33.613-203.375 20.031-68.281-13.582-131.001-47.107-180.23-96.335s-82.753-111.948-96.335-180.23c-13.582-68.279-6.611-139.055 20.031-203.375s71.759-119.296 129.645-157.973c57.886-38.677 125.941-59.324 195.561-59.324 93.325 0.107 182.797 37.227 248.785 103.215s103.108 155.46 103.215 248.785z" />
<glyph unicode="&#xe90d;" glyph-name="close" d="M822.66 182.623c2.97-2.973 5.328-6.502 6.938-10.39 1.609-3.884 2.439-8.046 2.439-12.251s-0.83-8.368-2.439-12.251c-1.609-3.884-3.968-7.417-6.938-10.39-2.973-2.97-6.506-5.328-10.39-6.938s-8.046-2.439-12.251-2.439c-4.206 0-8.368 0.83-12.251 2.439-3.888 1.609-7.417 3.968-10.39 6.938l-265.359 265.403-265.36-265.403c-6.005-6.001-14.148-9.377-22.64-9.377s-16.636 3.376-22.64 9.377c-6.004 6.005-9.378 14.149-9.378 22.641s3.373 16.636 9.378 22.641l265.402 265.359-265.402 265.36c-6.004 6.005-9.378 14.148-9.378 22.64s3.373 16.636 9.378 22.64c6.005 6.004 14.148 9.378 22.64 9.378s16.635-3.373 22.64-9.378l265.36-265.402 265.359 265.402c6.005 6.004 14.149 9.378 22.641 9.378s16.636-3.373 22.641-9.378c6.001-6.005 9.377-14.148 9.377-22.64s-3.376-16.635-9.377-22.64l-265.403-265.36 265.403-265.359z" />
<glyph unicode="&#xe90e;" glyph-name="Commercial" d="M689.843 938l-228.143-97.526v-808.454h69.459v169.943l-16.077-1.526c-3.15-0.287-6.287 0.686-8.723 2.708s-3.97 4.925-4.267 8.074c-0.297 3.154 0.667 6.292 2.68 8.735s4.913 3.988 8.062 4.296l123.628 11.766c3.133 0.256 6.241-0.732 8.653-2.755s3.932-4.91 4.224-8.044c0.297-3.128-0.65-6.252-2.642-8.689s-4.859-3.988-7.987-4.326l-18.319-1.746v-178.432h297.6v808.449l-228.147 97.526zM551.199 310.897l-43.125-4.127v83.323l43.125 6.651v-85.847zM551.214 446.244l-43.138-8.1v83.522l43.138 10.632v-86.054zM551.214 581.664l-43.138-12.082v83.524l43.138 14.61v-86.052zM551.214 717.152l-43.138-15.996v78.030l43.148 18.496-0.010-80.53zM643.471 319.688l-48.594-4.659v88.545l48.594 7.506v-91.392zM643.471 463.694l-48.594-9.146v88.474l48.594 11.992v-91.32zM643.471 607.63l-48.594-13.63v88.544l48.594 16.478v-91.392zM643.471 751.566l-48.594-18.114-0.015 82.926 48.604 20.854v-85.666h0.005zM758.881 173.998c0-3.185-1.265-6.236-3.512-8.484-2.253-2.253-5.304-3.517-8.489-3.517-3.18 0-6.231 1.265-8.484 3.517-2.248 2.248-3.512 5.299-3.512 8.484v659.188c0 3.183 1.265 6.235 3.512 8.485 2.253 2.251 5.304 3.515 8.484 3.515 3.185 0 6.236-1.264 8.489-3.515 2.248-2.25 3.512-5.303 3.512-8.485v-659.188zM815.918 173.998c0-3.185-1.265-6.236-3.512-8.484-2.253-2.253-5.304-3.517-8.489-3.517-3.18 0-6.236 1.265-8.484 3.517-2.253 2.248-3.517 5.299-3.517 8.484v634.806c0 3.183 1.265 6.235 3.517 8.485 2.248 2.25 5.304 3.515 8.484 3.515 3.185 0 6.236-1.265 8.489-3.515 2.248-2.25 3.512-5.303 3.512-8.485v-634.806zM872.955 173.998c0-3.185-1.265-6.236-3.517-8.484-2.248-2.253-5.299-3.517-8.484-3.517s-6.236 1.265-8.484 3.517c-2.253 2.248-3.517 5.299-3.517 8.484v610.424c0 3.183 1.265 6.235 3.517 8.485 2.248 2.25 5.299 3.515 8.484 3.515s6.236-1.265 8.484-3.515c2.253-2.25 3.517-5.303 3.517-8.485v-610.424zM343.768 702.468l-237.572-101.556v-568.891h74.172v131.948l-16.074-1.531c-1.575-0.169-3.168-0.026-4.686 0.425s-2.933 1.198-4.159 2.202c-1.227 0.998-2.243 2.237-2.989 3.635s-1.207 2.929-1.355 4.506c-0.149 1.577 0.017 3.164 0.488 4.68 0.471 1.51 1.238 2.913 2.255 4.127s2.267 2.217 3.674 2.944c1.407 0.727 2.945 1.167 4.524 1.295l123.624 11.766c3.158 0.297 6.305-0.671 8.749-2.693s3.985-4.931 4.283-8.090c0.298-3.159-0.67-6.308-2.692-8.75s-4.932-3.983-8.090-4.285l-18.322-1.741v-140.436h168.104v630.294l-93.934 40.154zM192.054 286.72l-35.098-4.803v67.558l35.098 7.209v-69.965zM192.054 396.846l-35.098-8.632v67.56l35.098 11.034v-69.962zM192.066 507.008l-35.108-12.414v63.1l35.12 14.792-0.012-65.478zM268.376 297.262l-40.422-5.571v72.351l40.422 8.346v-75.126zM268.376 415.688l-40.422-9.953v72.396l40.422 12.774v-75.216zM268.376 534.164l-40.434-14.392v67.8l40.434 17.134v-70.542zM23.2 8.023h977.786v-50.022h-977.786v50.022z" />
<glyph unicode="&#xe90f;" glyph-name="Crop" d="M952.001 192c0-6.365-2.53-12.469-7.030-16.971-4.502-4.5-10.606-7.030-16.971-7.030h-135.999v-135.999c0-6.365-2.53-12.469-7.030-16.971-4.502-4.5-10.606-7.030-16.971-7.030s-12.469 2.53-16.971 7.030c-4.5 4.502-7.030 10.606-7.030 16.971v135.999h-487.999c-6.365 0-12.469 2.53-16.971 7.030-4.5 4.502-7.030 10.606-7.030 16.971v487.999h-135.999c-6.365 0-12.47 2.53-16.971 7.030-4.501 4.502-7.029 10.606-7.029 16.971s2.528 12.469 7.029 16.971c4.501 4.5 10.605 7.030 16.971 7.030h135.999v135.999c0 6.365 2.53 12.47 7.030 16.971 4.502 4.501 10.606 7.029 16.971 7.029s12.469-2.528 16.971-7.029c4.5-4.501 7.030-10.605 7.030-16.971v-647.999h647.999c6.365 0 12.469-2.53 16.971-7.030 4.5-4.502 7.030-10.606 7.030-16.971zM384 679.999h359.999v-359.999c0-6.365 2.53-12.469 7.030-16.971 4.502-4.5 10.606-7.030 16.971-7.030s12.469 2.53 16.971 7.030c4.5 4.502 7.030 10.606 7.030 16.971v384c0 6.365-2.53 12.469-7.030 16.971-4.502 4.5-10.606 7.030-16.971 7.030h-384c-6.365 0-12.469-2.53-16.971-7.030-4.5-4.502-7.030-10.606-7.030-16.971s2.53-12.469 7.030-16.971c4.502-4.5 10.606-7.030 16.971-7.030z" />
<glyph unicode="&#xe910;" glyph-name="CurrencyCircleDollar" d="M512 864c-82.278 0-162.706-24.398-231.117-70.109s-121.731-110.681-153.216-186.695c-31.486-76.013-39.724-159.657-23.673-240.352s55.671-154.82 113.85-213.001c58.179-58.18 132.303-97.801 213-113.852 80.695-16.051 164.339-7.812 240.354 23.676 76.011 31.484 140.983 84.804 186.692 153.216 45.713 68.412 70.11 148.838 70.11 231.117-0.115 110.294-43.981 216.038-121.971 294.028s-183.735 121.856-294.029 121.972zM512 96c-69.619 0-137.674 20.646-195.561 59.324s-103.003 93.653-129.645 157.973c-26.642 64.32-33.613 135.095-20.031 203.375s47.107 131.002 96.335 180.23 111.949 82.753 180.23 96.335c68.284 13.582 139.059 6.611 203.375-20.031 64.32-26.642 119.296-71.759 157.973-129.645s59.324-125.941 59.324-195.561c-0.107-93.325-37.227-182.797-103.215-248.785s-155.46-103.108-248.785-103.215zM672 368c0-29.705-11.802-58.193-32.802-79.198-21.005-21.001-49.493-32.802-79.198-32.802h-16v-32c0-8.486-3.371-16.627-9.374-22.626-5.999-6.003-14.14-9.374-22.626-9.374s-16.627 3.371-22.626 9.374c-6.003 5.999-9.374 14.14-9.374 22.626v32h-64c-8.487 0-16.626 3.371-22.627 9.374-6.001 5.999-9.373 14.14-9.373 22.626s3.372 16.627 9.373 22.626c6.001 6.003 14.141 9.374 22.627 9.374h144c12.732 0 24.939 5.056 33.941 14.059s14.059 21.21 14.059 33.941c0 12.732-5.056 24.939-14.059 33.941s-21.21 14.059-33.941 14.059h-96c-29.705 0-58.192 11.802-79.196 32.802-21.004 21.005-32.804 49.493-32.804 79.198s11.8 58.192 32.804 79.196c21.004 21.004 49.491 32.804 79.196 32.804h16v32c0 8.487 3.371 16.626 9.374 22.627 5.999 6.001 14.14 9.373 22.626 9.373s16.627-3.372 22.626-9.373c6.003-6.001 9.374-14.141 9.374-22.627v-32h64c8.486 0 16.627-3.372 22.626-9.373 6.003-6.001 9.374-14.141 9.374-22.627s-3.371-16.626-9.374-22.627c-5.999-6.001-14.14-9.373-22.626-9.373h-144c-12.732 0-24.939-5.057-33.941-14.059-9.001-9.002-14.059-21.211-14.059-33.941 0-12.732 5.057-24.939 14.059-33.941s21.21-14.059 33.941-14.059h96c29.705 0 58.193-11.802 79.198-32.802 21.001-21.005 32.802-49.493 32.802-79.198z" />
<glyph unicode="&#xe911;" glyph-name="Email" d="M896 760h-768c-6.365 0-12.47-2.529-16.971-7.029s-7.029-10.605-7.029-16.971v-544c0-14.852 5.9-29.097 16.402-39.599 10.502-10.5 24.746-16.401 39.598-16.401h704c14.852 0 29.097 5.901 39.599 16.401 10.5 10.502 16.401 24.747 16.401 39.599v544c0 6.366-2.528 12.47-7.029 16.971s-10.605 7.029-16.971 7.029zM512 416.559l-322.32 295.441h644.639l-322.319-295.441zM406.679 448l-254.679-233.44v466.88l254.679-233.44zM442.199 415.441l53.801-49.122c4.425-4.047 10.204-6.291 16.201-6.291s11.776 2.244 16.201 6.291l53.598 49.122 252.32-231.441h-644.599l252.479 231.441zM617.321 448l254.679 233.44v-466.88l-254.679 233.44z" />
<glyph unicode="&#xe912;" glyph-name="Facebook" d="M512 864c-82.276 0-162.706-24.398-231.117-70.109s-121.731-110.681-153.217-186.695c-31.486-76.014-39.724-159.657-23.673-240.353s55.672-154.821 113.85-213c58.178-58.179 132.303-97.797 212.999-113.851 80.696-16.051 164.339-7.813 240.353 23.675 76.014 31.485 140.984 84.805 186.696 153.216s70.108 148.841 70.108 231.117c-0.115 110.295-43.983 216.038-121.971 294.028-77.99 77.99-183.734 121.856-294.029 121.972zM544 97.48v254.52h96c8.486 0 16.627 3.372 22.628 9.372s9.372 14.141 9.372 22.628c0 8.486-3.372 16.627-9.372 22.628s-14.141 9.372-22.628 9.372h-96v96c0 16.973 6.743 33.252 18.744 45.256 12.004 12.001 28.283 18.744 45.256 18.744h64c8.486 0 16.627 3.372 22.628 9.372s9.372 14.141 9.372 22.628c0 8.486-3.372 16.627-9.372 22.628s-14.141 9.372-22.628 9.372h-64c-33.948 0-66.504-13.486-90.509-37.491-24.005-24.003-37.491-56.561-37.491-90.509v-96h-96c-8.486 0-16.627-3.372-22.628-9.372s-9.372-14.141-9.372-22.628c0-8.486 3.372-16.627 9.372-22.628s14.141-9.372 22.628-9.372h96v-254.52c-90.209 8.236-173.77 50.929-233.302 119.201s-90.455 156.869-86.333 247.357c4.122 90.491 42.969 175.908 108.463 238.484 65.492 62.579 152.589 97.5 243.172 97.5s177.679-34.921 243.174-97.5c65.492-62.577 104.34-147.994 108.462-238.484 4.122-90.488-26.801-179.085-86.333-247.357s-143.094-110.966-233.303-119.201z" />
<glyph unicode="&#xe913;" glyph-name="filter" d="M544 480v-384c0-8.488-3.372-16.625-9.373-22.627s-14.139-9.373-22.627-9.373c-8.488 0-16.625 3.372-22.627 9.373s-9.373 14.139-9.373 22.627v384c0 8.488 3.372 16.625 9.373 22.627s14.139 9.373 22.627 9.373c8.488 0 16.625-3.372 22.627-9.373s9.373-14.139 9.373-22.627zM800 192c-8.488 0-16.625-3.372-22.627-9.373s-9.373-14.139-9.373-22.627v-64c0-8.488 3.372-16.625 9.373-22.627s14.139-9.373 22.627-9.373c8.488 0 16.625 3.372 22.627 9.373s9.373 14.139 9.373 22.627v64c0 8.488-3.372 16.625-9.373 22.627s-14.139 9.373-22.627 9.373zM896 320h-64v480c0 8.487-3.372 16.626-9.373 22.627s-14.139 9.373-22.627 9.373c-8.488 0-16.625-3.372-22.627-9.373s-9.373-14.141-9.373-22.627v-480h-64c-8.488 0-16.625-3.372-22.627-9.373s-9.373-14.139-9.373-22.627c0-8.488 3.372-16.625 9.373-22.627s14.139-9.373 22.627-9.373h192c8.488 0 16.625 3.372 22.627 9.373s9.373 14.139 9.373 22.627c0 8.488-3.372 16.625-9.373 22.627s-14.139 9.373-22.627 9.373zM224 320c-8.487 0-16.626-3.372-22.627-9.373s-9.373-14.139-9.373-22.627v-192c0-8.488 3.372-16.625 9.373-22.627s14.141-9.373 22.627-9.373c8.487 0 16.626 3.372 22.627 9.373s9.373 14.139 9.373 22.627v192c0 8.488-3.372 16.625-9.373 22.627s-14.141 9.373-22.627 9.373zM320 448h-64v352c0 8.487-3.372 16.626-9.373 22.627s-14.141 9.373-22.627 9.373c-8.487 0-16.626-3.372-22.627-9.373s-9.373-14.141-9.373-22.627v-352h-64c-8.487 0-16.626-3.372-22.627-9.373s-9.373-14.139-9.373-22.627c0-8.488 3.372-16.625 9.373-22.627s14.141-9.373 22.627-9.373h192c8.487 0 16.626 3.372 22.627 9.373s9.373 14.139 9.373 22.627c0 8.488-3.372 16.625-9.373 22.627s-14.141 9.373-22.627 9.373zM608 640h-64v160c0 8.487-3.372 16.626-9.373 22.627s-14.139 9.373-22.627 9.373c-8.488 0-16.625-3.372-22.627-9.373s-9.373-14.141-9.373-22.627v-160h-64c-8.488 0-16.625-3.372-22.627-9.373s-9.373-14.141-9.373-22.627c0-8.487 3.372-16.625 9.373-22.627s14.139-9.373 22.627-9.373h192c8.488 0 16.625 3.372 22.627 9.373s9.373 14.14 9.373 22.627c0 8.487-3.372 16.626-9.373 22.627s-14.139 9.373-22.627 9.373z" />
<glyph unicode="&#xe914;" glyph-name="Folders" d="M896 696.001h-280.001l-113.079 84.799c-9.693 7.27-21.482 11.2-33.599 11.2h-181.321c-14.852 0-29.095-5.9-39.597-16.402s-16.404-24.746-16.404-39.598v-71.999h-71.999c-14.852 0-29.096-5.902-39.598-16.404s-16.402-24.745-16.402-39.597v-448c0-14.852 5.9-29.095 16.402-39.597s24.746-16.404 39.598-16.404h611.56c13.905 0.012 27.236 5.539 37.069 15.372s15.36 23.164 15.372 37.069v75.559h75.559c13.905 0.012 27.236 5.539 37.069 15.372s15.36 23.164 15.372 37.069v355.56c0 14.852-5.902 29.095-16.404 39.597s-24.745 16.404-39.597 16.404zM775.999 156.44c0-1.178-0.467-2.306-1.3-3.139s-1.961-1.3-3.139-1.3h-611.56c-2.122 0-4.157 0.843-5.657 2.341-1.5 1.501-2.343 3.537-2.343 5.658v448c0 2.121 0.843 4.157 2.343 5.658 1.5 1.499 3.535 2.341 5.657 2.341h181.321c1.731 0 3.415-0.561 4.799-1.599l119.481-89.6c4.153-3.115 9.206-4.801 14.399-4.801h288c2.121 0 4.157-0.843 5.658-2.341 1.499-1.501 2.341-3.537 2.341-5.658v-355.56zM903.999 284.44c0-0.583-0.114-1.16-0.337-1.699s-0.551-1.028-0.963-1.44-0.902-0.74-1.44-0.963c-0.54-0.223-1.117-0.337-1.699-0.337h-75.559v231.999c0 14.852-5.902 29.095-16.404 39.597s-24.745 16.404-39.597 16.404h-280.001l-113.079 84.799c-9.693 7.27-21.482 11.201-33.599 11.201h-61.32v71.999c0 2.121 0.843 4.157 2.341 5.658 1.501 1.499 3.537 2.341 5.658 2.341h181.321c1.731 0 3.415-0.561 4.799-1.599l119.479-89.6c4.155-3.115 9.208-4.801 14.401-4.801h288c2.121 0 4.157-0.843 5.658-2.341 1.499-1.501 2.341-3.537 2.341-5.658v-355.56z" />
<glyph unicode="&#xe915;" glyph-name="GridFour" d="M800 800h-576c-16.974 0-33.253-6.743-45.255-18.745s-18.745-28.281-18.745-45.255v-576c0-16.973 6.743-33.254 18.745-45.257s28.281-18.743 45.255-18.743h576c16.973 0 33.254 6.741 45.257 18.743s18.743 28.284 18.743 45.257v576c0 16.974-6.741 33.253-18.743 45.255s-28.284 18.745-45.257 18.745zM800 480h-256v256h256v-256zM480 736v-256h-256v256h256zM224 416h256v-256h-256v256zM800 160h-256v256h256v-256z" />
<glyph unicode="&#xe916;" glyph-name="HashStraight" d="M864 344.001h-199.999v207.998h199.999c6.365 0 12.469 2.53 16.971 7.030 4.5 4.502 7.030 10.606 7.030 16.971s-2.53 12.469-7.030 16.971c-4.502 4.5-10.606 7.030-16.971 7.030h-199.999v199.999c0 6.365-2.53 12.47-7.030 16.971-4.502 4.501-10.606 7.029-16.971 7.029s-12.469-2.528-16.971-7.029c-4.5-4.501-7.030-10.605-7.030-16.971v-199.999h-207.998v199.999c0 6.365-2.53 12.47-7.030 16.971-4.502 4.501-10.606 7.029-16.971 7.029s-12.469-2.528-16.971-7.029c-4.5-4.501-7.030-10.605-7.030-16.971v-199.999h-199.999c-6.365 0-12.47-2.53-16.971-7.030-4.501-4.502-7.029-10.606-7.029-16.971s2.528-12.469 7.029-16.971c4.501-4.5 10.605-7.030 16.971-7.030h199.999v-207.998h-199.999c-6.365 0-12.47-2.53-16.971-7.030-4.501-4.502-7.029-10.606-7.029-16.971s2.528-12.469 7.029-16.971c4.501-4.5 10.605-7.030 16.971-7.030h199.999v-199.999c0-6.365 2.53-12.469 7.030-16.971 4.502-4.5 10.606-7.030 16.971-7.030s12.469 2.53 16.971 7.030c4.5 4.502 7.030 10.606 7.030 16.971v199.999h207.998v-199.999c0-6.365 2.53-12.469 7.030-16.971 4.502-4.5 10.606-7.030 16.971-7.030s12.469 2.53 16.971 7.030c4.5 4.502 7.030 10.606 7.030 16.971v199.999h199.999c6.365 0 12.469 2.53 16.971 7.030 4.5 4.502 7.030 10.606 7.030 16.971s-2.53 12.469-7.030 16.971c-4.502 4.5-10.606 7.030-16.971 7.030zM408.001 344.001v207.998h207.998v-207.998h-207.998z" />
<glyph unicode="&#xe917;" glyph-name="Heart" d="M712.002 832c-82.6 0-154.92-35.52-200.002-95.56-45.082 60.040-117.402 95.56-200 95.56-65.751-0.074-128.788-26.226-175.281-72.719s-72.645-109.53-72.719-175.282c0-279.998 415.159-506.639 432.841-515.997 4.659-2.509 9.867-3.822 15.159-3.822s10.5 1.313 15.159 3.822c17.682 9.359 432.841 235.999 432.841 515.997-0.073 65.753-26.225 128.79-72.719 175.282s-109.531 72.645-175.28 72.719zM512 132.798c-73.040 42.562-384 236.442-384 451.2 0.064 48.782 19.47 95.547 53.963 130.039s81.257 53.899 130.037 53.963c77.8 0 143.12-41.44 170.399-108 2.41-5.869 6.513-10.889 11.783-14.422s11.472-5.419 17.818-5.419c6.345 0 12.548 1.886 17.818 5.419s9.373 8.553 11.783 14.422c27.279 66.68 92.599 108 170.401 108 48.779-0.064 95.543-19.47 130.037-53.963 34.491-34.493 53.899-81.257 53.961-130.039 0-214.437-311.040-408.598-384-451.2z" />
<glyph unicode="&#xe918;" glyph-name="House" d="M960 127.99h-64v288l9.359-9.359c6.016-6.006 14.172-9.375 22.671-9.364 8.499 0.005 16.645 3.389 22.651 9.405 6.001 6.011 9.37 14.167 9.364 22.666s-3.389 16.645-9.405 22.652l-393.4 393.28c-12.001 11.994-28.273 18.73-45.24 18.73s-33.239-6.737-45.24-18.73l-393.4-393.28c-5.999-6.007-9.367-14.148-9.363-22.637 0.004-8.484 3.379-16.625 9.383-22.625 6.005-5.996 14.147-9.364 22.634-9.359 8.488 0 16.627 3.379 22.626 9.38l9.36 9.242v-288h-64c-8.487 0-16.626-3.374-22.627-9.375s-9.373-14.136-9.373-22.625c0-8.489 3.371-16.625 9.373-22.625 6.001-6.006 14.141-9.375 22.627-9.375h896c8.489 0 16.625 3.369 22.625 9.375 6.006 6.001 9.375 14.136 9.375 22.625s-3.369 16.625-9.375 22.625c-6.001 6.001-14.136 9.375-22.625 9.375zM608 127.99h-192v192c0 4.244 1.686 8.315 4.686 11.315s7.070 4.685 11.314 4.685h160c4.244 0 8.315-1.684 11.315-4.685s4.685-7.071 4.685-11.315v-192z" />
<glyph unicode="&#xe919;" glyph-name="HouseLine" d="M960 127.991h-64v288l9.361-9.361c6.016-6.003 14.17-9.374 22.669-9.365 8.499 0.004 16.644 3.388 22.652 9.404 6.003 6.016 9.374 14.17 9.365 22.669s-3.392 16.649-9.408 22.652l-393.399 393.28c-12.002 11.993-28.271 18.73-45.239 18.73s-33.237-6.737-45.239-18.73l-393.4-393.28c-5.999-6.003-9.367-14.144-9.364-22.635 0.004-8.486 3.379-16.627 9.384-22.626s14.147-9.365 22.634-9.361c8.488 0.004 16.627 3.379 22.626 9.382l9.36 9.242v-288h-64c-8.487 0-16.626-3.375-22.627-9.374-6.001-6.003-9.373-14.14-9.373-22.626 0-8.491 3.371-16.627 9.373-22.63 6.001-5.999 14.141-9.37 22.627-9.37h896c8.486 0 16.627 3.371 22.626 9.37 6.003 6.003 9.374 14.14 9.374 22.63 0 8.486-3.371 16.623-9.374 22.626-5.999 5.999-14.14 9.374-22.626 9.374zM192 479.991l320 319.998 320-319.998v-352h-192v224c0 8.486-3.371 16.623-9.374 22.626-5.999 5.999-14.14 9.374-22.626 9.374h-192c-8.487 0-16.626-3.375-22.627-9.374-6.001-6.003-9.373-14.14-9.373-22.626v-224h-192v352zM576 127.991h-128v192h128v-192z" />
<glyph unicode="&#xe91a;" glyph-name="Image" d="M864 792h-704c-14.852 0-29.096-5.9-39.598-16.402s-16.402-24.746-16.402-39.598v-576c0-14.852 5.9-29.097 16.402-39.599 10.502-10.5 24.746-16.401 39.598-16.401h704c14.852 0 29.097 5.901 39.599 16.401 10.5 10.502 16.401 24.747 16.401 39.599v576c0 14.852-5.901 29.096-16.401 39.598-10.502 10.502-24.747 16.402-39.599 16.402zM160 744h704c2.123 0 4.156-0.843 5.658-2.342 1.5-1.502 2.342-3.535 2.342-5.658v-430.281l-117.879 117.879c-5.201 5.201-11.375 9.327-18.17 12.141-6.795 2.816-14.076 4.265-21.431 4.265s-14.637-1.449-21.431-4.265c-6.795-2.814-12.969-6.94-18.167-12.141l-85.681-85.679-181.638 181.681c-5.201 5.199-11.375 9.325-18.17 12.139-6.795 2.816-14.078 4.265-21.431 4.265s-14.637-1.449-21.431-4.265c-6.795-2.814-12.969-6.94-18.17-12.139l-176.399-176.401v392.8c0 2.123 0.843 4.156 2.343 5.658 1.5 1.5 3.535 2.342 5.657 2.342zM152 160v115.319l210.321 210.321c0.742 0.749 1.628 1.344 2.603 1.751 0.975 0.405 2.020 0.614 3.076 0.614s2.101-0.209 3.076-0.614c0.975-0.407 1.86-1.003 2.603-1.751l333.641-333.641h-547.319c-2.122 0-4.157 0.843-5.657 2.342-1.5 1.502-2.343 3.535-2.343 5.658zM864 152h-88.8l-152 152 85.641 85.681c0.742 0.742 1.626 1.333 2.596 1.734 0.971 0.403 2.012 0.61 3.063 0.61s2.093-0.207 3.063-0.61c0.971-0.401 1.854-0.992 2.596-1.734l152-152v-77.681c0-1.065-0.211-2.118-0.623-3.1-0.414-0.981-1.018-1.869-1.777-2.615s-1.66-1.329-2.65-1.722-2.046-0.585-3.11-0.563zM584 560c0 7.91 2.347 15.646 6.741 22.223s10.643 11.706 17.952 14.733c7.309 3.027 15.351 3.819 23.11 2.276 7.759-1.545 14.886-5.355 20.48-10.948 5.596-5.594 9.404-12.721 10.948-20.48 1.542-7.759 0.751-15.802-2.276-23.11s-8.156-13.557-14.733-17.952c-6.577-4.395-14.313-6.741-22.223-6.741-10.609 0-20.783 4.213-28.284 11.716-7.503 7.501-11.716 17.675-11.716 28.284z" />
<glyph unicode="&#xe91b;" glyph-name="Instagram" d="M512 640c-37.975 0-75.095-11.261-106.67-32.358-31.572-21.097-56.182-51.082-70.715-86.167-14.533-35.082-18.335-73.687-10.926-110.932 7.409-37.243 25.695-71.455 52.547-98.307s61.064-45.138 98.307-52.547c37.245-7.409 75.85-3.607 110.932 10.926 35.085 14.533 65.070 39.142 86.167 70.715 21.097 31.575 32.358 68.695 32.358 106.67-0.054 50.906-20.298 99.709-56.294 135.706s-84.8 56.241-135.706 56.294zM512 320c-25.316 0-50.063 7.506-71.114 21.573-21.048 14.065-37.455 34.056-47.142 57.444s-12.224 49.124-7.283 73.956c4.938 24.829 17.129 47.636 35.031 65.536 17.9 17.902 40.707 30.093 65.536 35.031 24.832 4.941 50.568 2.404 73.956-7.283s43.379-26.094 57.444-47.142c14.067-21.051 21.573-45.798 21.573-71.114 0-33.948-13.486-66.506-37.491-90.509-24.003-24.005-56.561-37.491-90.509-37.491zM704 864h-384c-59.389-0.063-116.327-23.684-158.322-65.678s-65.615-98.932-65.678-158.322v-384c0.063-59.389 23.684-116.326 65.678-158.321 41.994-41.997 98.932-65.615 158.322-65.679h384c59.389 0.064 116.326 23.683 158.321 65.679 41.997 41.994 65.615 98.931 65.679 158.321v384c-0.064 59.389-23.683 116.327-65.679 158.322-41.994 41.994-98.931 65.615-158.321 65.678zM864 256c0-42.435-16.858-83.131-46.863-113.137s-70.702-46.863-113.137-46.863h-384c-42.435 0-83.131 16.858-113.137 46.863s-46.863 70.702-46.863 113.137v384c0 42.435 16.857 83.131 46.863 113.137s70.703 46.863 113.137 46.863h384c42.435 0 83.131-16.857 113.137-46.863s46.863-70.703 46.863-113.137v-384zM768 656c0-9.492-2.816-18.775-8.090-26.668s-12.772-14.047-21.542-17.679c-8.771-3.633-18.422-4.582-27.732-2.732-9.311 1.853-17.864 6.426-24.576 13.138s-11.284 15.265-13.138 24.576c-1.851 9.311-0.901 18.962 2.732 27.732s9.787 16.269 17.679 21.542c7.892 5.274 17.175 8.090 26.668 8.090 12.731 0 24.94-5.056 33.94-14.060 9.004-9.001 14.060-21.21 14.060-33.94z" />
<glyph unicode="&#xe91c;" glyph-name="List" d="M896 448c0-8.487-3.371-16.626-9.37-22.628-6.007-6.001-14.14-9.372-22.63-9.372h-704c-8.487 0-16.626 3.372-22.627 9.372s-9.373 14.141-9.373 22.628c0 8.487 3.372 16.626 9.373 22.627s14.14 9.373 22.627 9.373h704c8.491 0 16.623-3.372 22.63-9.373 5.999-6.001 9.37-14.14 9.37-22.627zM160 672h704c8.491 0 16.623 3.372 22.63 9.373 5.999 6.001 9.37 14.14 9.37 22.627s-3.371 16.626-9.37 22.627c-6.007 6.001-14.14 9.373-22.63 9.373h-704c-8.487 0-16.626-3.372-22.627-9.373s-9.373-14.14-9.373-22.627c0-8.487 3.372-16.626 9.373-22.627s14.14-9.373 22.627-9.373zM864 224h-704c-8.487 0-16.626-3.372-22.627-9.372s-9.373-14.141-9.373-22.628c0-8.487 3.372-16.626 9.373-22.628s14.14-9.372 22.627-9.372h704c8.491 0 16.623 3.372 22.63 9.372 5.999 6.001 9.37 14.141 9.37 22.628s-3.371 16.626-9.37 22.628c-6.007 6.001-14.14 9.372-22.63 9.372z" />
<glyph unicode="&#xe91d;" glyph-name="ListDashes" d="M352 704c0 8.487 3.372 16.626 9.373 22.627s14.141 9.373 22.627 9.373h480c8.486 0 16.627-3.372 22.626-9.373 6.003-6.001 9.374-14.141 9.374-22.627s-3.371-16.626-9.374-22.627c-5.999-6.001-14.14-9.373-22.626-9.373h-480c-8.487 0-16.626 3.372-22.627 9.373s-9.373 14.141-9.373 22.627zM864 480h-480c-8.487 0-16.626-3.371-22.627-9.374-6.001-5.999-9.373-14.14-9.373-22.626s3.372-16.627 9.373-22.626c6.001-6.003 14.141-9.374 22.627-9.374h480c8.486 0 16.627 3.371 22.626 9.374 6.003 5.999 9.374 14.14 9.374 22.626s-3.371 16.627-9.374 22.626c-5.999 6.003-14.14 9.374-22.626 9.374zM864 224h-480c-8.487 0-16.626-3.371-22.627-9.374-6.001-5.999-9.373-14.14-9.373-22.626s3.372-16.627 9.373-22.626c6.001-6.003 14.141-9.374 22.627-9.374h480c8.486 0 16.627 3.371 22.626 9.374 6.003 5.999 9.374 14.14 9.374 22.626s-3.371 16.627-9.374 22.626c-5.999 6.003-14.14 9.374-22.626 9.374zM224 736h-64c-8.487 0-16.626-3.372-22.627-9.373s-9.373-14.141-9.373-22.627c0-8.487 3.372-16.626 9.373-22.627s14.141-9.373 22.627-9.373h64c8.487 0 16.626 3.372 22.627 9.373s9.373 14.141 9.373 22.627c0 8.487-3.372 16.626-9.373 22.627s-14.141 9.373-22.627 9.373zM224 480h-64c-8.487 0-16.626-3.371-22.627-9.374-6.001-5.999-9.373-14.14-9.373-22.626s3.372-16.627 9.373-22.626c6.001-6.003 14.141-9.374 22.627-9.374h64c8.487 0 16.626 3.371 22.627 9.374 6.001 5.999 9.373 14.14 9.373 22.626s-3.372 16.627-9.373 22.626c-6.001 6.003-14.141 9.374-22.627 9.374zM224 224h-64c-8.487 0-16.626-3.371-22.627-9.374-6.001-5.999-9.373-14.14-9.373-22.626s3.372-16.627 9.373-22.626c6.001-6.003 14.141-9.374 22.627-9.374h64c8.487 0 16.626 3.371 22.627 9.374 6.001 5.999 9.373 14.14 9.373 22.626s-3.372 16.627-9.373 22.626c-6.001 6.003-14.141 9.374-22.627 9.374z" />
<glyph unicode="&#xe91e;" glyph-name="MapPin" d="M512 696c-30.063 0-59.45-8.915-84.446-25.617s-44.48-40.442-55.983-68.215c-11.505-27.774-14.515-58.336-8.651-87.821s20.341-56.57 41.6-77.826c21.257-21.259 48.341-35.735 77.826-41.6s60.047-2.854 87.821 8.651c27.774 11.503 51.514 30.987 68.215 55.983s25.617 54.383 25.617 84.446c0 40.314-16.015 78.974-44.521 107.479s-67.166 44.521-107.479 44.521zM512 440c-20.57 0-40.676 6.099-57.779 17.527s-30.432 27.669-38.304 46.673c-7.872 19.004-9.931 39.915-5.918 60.090 4.013 20.173 13.918 38.705 28.463 53.248 14.543 14.545 33.075 24.45 53.248 28.463 20.175 4.013 41.086 1.954 60.090-5.918s35.245-21.201 46.673-38.304c11.428-17.103 17.527-37.21 17.527-57.779 0-27.582-10.957-54.035-30.462-73.538-19.503-19.505-45.956-30.462-73.538-30.462zM512 888c-91.202-0.106-178.639-36.383-243.127-100.872-64.49-64.489-100.767-151.926-100.873-243.128 0-123.639 57.361-254.959 165.879-379.759 48.981-56.606 104.107-107.586 164.361-152 4.034-2.822 8.836-4.337 13.76-4.337s9.726 1.515 13.76 4.337c60.254 44.414 115.379 95.394 164.361 152 108.518 124.8 165.879 256 165.879 379.759-0.107 91.202-36.382 178.639-100.873 243.128-64.489 64.49-151.925 100.766-243.127 100.872zM512 61.961c-60 46.319-296 243.561-296 482.039 0 78.505 31.185 153.792 86.697 209.304s130.799 86.696 209.303 86.696 153.792-31.186 209.303-86.696c55.511-55.512 86.697-130.799 86.697-209.304 0-238.479-236-435.721-296-482.039z" />
<glyph unicode="&#xe91f;" glyph-name="MathOperations" d="M448 672.003c0-8.487-3.371-16.626-9.374-22.627-5.999-6.001-14.139-9.373-22.626-9.373h-256c-8.487 0-16.626 3.372-22.627 9.373s-9.373 14.141-9.373 22.627c0 8.487 3.372 16.626 9.373 22.627s14.141 9.373 22.627 9.373h256c8.487 0 16.627-3.372 22.626-9.373 6.003-6.001 9.374-14.141 9.374-22.627zM416 256.004h-96v96c0 8.486-3.372 16.623-9.373 22.626s-14.141 9.374-22.627 9.374c-8.487 0-16.626-3.371-22.627-9.374s-9.373-14.14-9.373-22.626v-96h-96c-8.487 0-16.626-3.371-22.627-9.374s-9.373-14.14-9.373-22.626c0-8.486 3.372-16.627 9.373-22.63 6.001-5.999 14.141-9.37 22.627-9.37h96v-96c0-8.486 3.372-16.627 9.373-22.63 6.001-5.999 14.141-9.37 22.627-9.37s16.626 3.371 22.627 9.37c6.001 6.003 9.373 14.144 9.373 22.63v96h96c8.487 0 16.627 3.371 22.626 9.37 6.003 6.003 9.374 14.144 9.374 22.63s-3.371 16.623-9.374 22.626c-5.999 6.003-14.139 9.374-22.626 9.374zM608 256.004h256c8.486 0 16.627 3.371 22.626 9.37 6.003 6.003 9.374 14.144 9.374 22.63s-3.371 16.623-9.374 22.626c-5.999 6.003-14.14 9.374-22.626 9.374h-256c-8.486 0-16.627-3.371-22.626-9.374-6.003-6.003-9.374-14.14-9.374-22.626s3.371-16.627 9.374-22.63c5.999-5.999 14.14-9.37 22.626-9.37zM864 192.004h-256c-8.486 0-16.627-3.371-22.626-9.374-6.003-6.003-9.374-14.14-9.374-22.626s3.371-16.627 9.374-22.63c5.999-5.999 14.14-9.37 22.626-9.37h256c8.486 0 16.627 3.371 22.626 9.37 6.003 6.003 9.374 14.144 9.374 22.63s-3.371 16.623-9.374 22.626c-5.999 6.003-14.14 9.374-22.626 9.374zM617.361 553.363c2.97-2.976 6.498-5.336 10.385-6.946 3.883-1.61 8.047-2.439 12.254-2.439s8.371 0.829 12.254 2.439c3.887 1.61 7.415 3.971 10.385 6.946l73.361 73.4 73.361-73.4c2.974-2.973 6.502-5.332 10.385-6.941 3.887-1.609 8.051-2.438 12.254-2.438s8.367 0.828 12.254 2.438c3.883 1.609 7.411 3.967 10.385 6.941s5.333 6.502 6.942 10.387c1.609 3.884 2.436 8.048 2.436 12.253s-0.828 8.368-2.436 12.253c-1.609 3.885-3.968 7.414-6.942 10.388l-73.399 73.36 73.399 73.36c6.007 6.004 9.378 14.148 9.378 22.64s-3.371 16.636-9.378 22.64c-6.003 6.004-14.148 9.378-22.639 9.378s-16.636-3.373-22.639-9.378l-73.361-73.4-73.361 73.4c-6.003 6.004-14.148 9.378-22.639 9.378s-16.636-3.373-22.639-9.378c-6.007-6.004-9.378-14.149-9.378-22.64s3.371-16.635 9.378-22.64l73.399-73.36-73.399-73.36c-2.978-2.972-5.338-6.502-6.946-10.386-1.613-3.885-2.441-8.049-2.441-12.254s0.828-8.369 2.441-12.254c1.609-3.885 3.968-7.414 6.946-10.386z" />
<glyph unicode="&#xe920;" glyph-name="PhoneCall" d="M616.799 806.231c0.816 3.047 2.22 5.905 4.136 8.409 1.92 2.504 4.312 4.606 7.040 6.185 2.732 1.579 5.745 2.604 8.872 3.017s6.305 0.206 9.351-0.611c57.969-15.121 110.859-45.422 153.22-87.783s72.66-95.249 87.782-153.216c0.816-3.046 1.024-6.224 0.611-9.351s-1.437-6.144-3.017-8.872c-1.58-2.732-3.679-5.124-6.184-7.040-2.505-1.92-5.361-3.324-8.411-4.136-2.022-0.541-4.107-0.808-6.199-0.801-5.288-0.004-10.427 1.741-14.625 4.959-4.195 3.218-7.208 7.731-8.576 12.84-12.979 49.793-39.003 95.223-75.392 131.609-36.385 36.386-81.814 62.41-131.606 75.392-3.050 0.813-5.906 2.218-8.411 4.135-2.501 1.918-4.604 4.31-6.184 7.041-1.576 2.73-2.604 5.745-3.017 8.873s-0.205 6.305 0.611 9.351zM601.801 648.831c58.2-15.52 95.481-52.8 110.998-111.001 1.368-5.109 4.381-9.622 8.576-12.84 4.198-3.218 9.337-4.963 14.625-4.959 2.092-0.007 4.176 0.26 6.199 0.801 3.050 0.812 5.906 2.216 8.411 4.136 2.505 1.916 4.604 4.308 6.184 7.040 1.58 2.728 2.604 5.745 3.017 8.872s0.205 6.305-0.611 9.351c-20.001 74.839-70.159 124.999-145.002 144.999-3.046 0.814-6.221 1.020-9.348 0.607s-6.14-1.439-8.872-3.018c-5.511-3.188-9.534-8.436-11.18-14.589-1.642-6.153-0.775-12.707 2.414-18.221 3.185-5.514 8.433-9.535 14.588-11.179zM919.559 260.831c-6.853-52.29-32.512-100.293-72.185-135.040-39.669-34.747-90.639-53.859-143.375-53.76-313.201 0-568 254.8-568 568-0.101 52.718 18.993 103.67 53.715 143.339s82.698 65.341 134.965 72.221c12.032 1.462 24.214-1.019 34.715-7.070 10.503-6.051 18.757-15.347 23.526-26.49l84.4-188.4c3.727-8.529 5.27-17.853 4.487-27.128s-3.866-18.208-8.967-25.994c-0.516-0.79-1.075-1.551-1.679-2.278l-84.283-100.239c-0.512-1.039-0.775-2.183-0.775-3.343 0-1.156 0.263-2.3 0.775-3.339 30.64-62.72 96.402-128 160-158.599 1.064-0.486 2.224-0.713 3.39-0.673s2.308 0.355 3.332 0.914l98.757 83.997c0.706 0.614 1.456 1.178 2.242 1.682 7.749 5.164 16.666 8.316 25.94 9.168 9.278 0.852 18.619-0.622 27.18-4.29l188.961-84.681c10.993-4.871 20.129-13.155 26.050-23.621s8.316-22.565 6.828-34.498v0.121zM872.002 266.752c0.132 1.671-0.263 3.343-1.13 4.78-0.87 1.434-2.169 2.56-3.712 3.218l-189.001 84.681c-1.031 0.399-2.136 0.567-3.24 0.501-1.108-0.069-2.183-0.377-3.156-0.9l-98.721-84.001c-0.72-0.6-1.481-1.159-2.242-1.682-8.053-5.369-17.357-8.558-27.012-9.26s-19.324 1.112-28.069 5.263c-73.439 35.478-146.64 107.999-182.119 180.758-4.173 8.693-6.031 18.319-5.393 27.941 0.638 9.618 3.749 18.915 9.033 26.979 0.515 0.805 1.090 1.565 1.72 2.282l84.24 100.239c0.479 1.048 0.731 2.187 0.731 3.34s-0.252 2.292-0.731 3.34l-84.24 188.56c-0.556 1.513-1.556 2.824-2.869 3.758s-2.879 1.452-4.491 1.482h-0.92c-40.682-5.412-78.004-25.446-104.996-56.361s-41.809-70.598-41.684-111.639c0-286.722 233.28-520 520-520 41.048-0.124 80.735 14.698 111.653 41.699 30.914 27.001 50.944 64.333 56.349 105.022z" />
<glyph unicode="&#xe921;" glyph-name="Play" d="M960 448.005c0.026-10.865-2.76-21.553-8.087-31.022s-13.012-17.4-22.313-23.017l-576.32-352.561c-9.718-5.949-20.846-9.198-32.238-9.411-11.389-0.21-22.633 2.624-32.561 8.21-9.838 5.499-18.030 13.519-23.739 23.235s-8.727 20.777-8.742 32.046v705.040c0.015 11.269 3.034 22.329 8.742 32.045s13.901 17.736 23.739 23.235c9.928 5.586 21.171 8.42 32.561 8.209 11.392-0.211 22.52-3.459 32.238-9.409l576.32-352.561c9.3-5.619 16.986-13.548 22.313-23.017s8.113-20.157 8.087-31.022z" />
<glyph unicode="&#xe922;" glyph-name="Ruler" d="M941.312 666.53l-210.761 210.72c-5.943 5.944-13.001 10.66-20.766 13.877s-16.090 4.873-24.495 4.873c-8.405 0-16.73-1.656-24.495-4.873s-14.822-7.933-20.766-13.877l-557.28-557.241c-5.944-5.943-10.66-12.996-13.877-20.762-3.217-7.77-4.873-16.090-4.873-24.499 0-8.405 1.656-16.725 4.873-24.495 3.217-7.765 7.933-14.818 13.877-20.762l210.76-210.722c5.943-5.943 12.999-10.658 20.765-13.875s16.090-4.873 24.495-4.873c8.406 0 16.729 1.655 24.495 4.873s14.822 7.932 20.765 13.875l557.282 557.241c5.943 5.943 10.658 12.999 13.875 20.765s4.873 16.090 4.873 24.495c0 8.406-1.655 16.729-4.873 24.495s-7.932 14.822-13.875 20.765zM338.75 64.009l-210.72 210.761 128 128 105.36-105.399c2.973-2.974 6.502-5.333 10.387-6.942s8.048-2.436 12.253-2.436c4.205 0 8.368 0.828 12.253 2.436s7.414 3.968 10.388 6.942c2.973 2.974 5.331 6.502 6.941 10.389 1.609 3.883 2.437 8.047 2.437 12.25 0 4.207-0.828 8.371-2.437 12.254s-3.968 7.415-6.941 10.389l-105.4 105.357 82.76 82.761 105.361-105.399c6.003-6.003 14.148-9.378 22.639-9.378s16.636 3.375 22.639 9.378c6.007 6.003 9.378 14.148 9.378 22.639 0 8.495-3.371 16.636-9.378 22.643l-105.399 105.358 82.761 82.76 105.361-105.4c2.974-2.973 6.502-5.332 10.385-6.941 3.887-1.609 8.051-2.437 12.254-2.437 4.207 0 8.367 0.828 12.254 2.437 3.883 1.609 7.415 3.968 10.385 6.941 2.974 2.973 5.333 6.503 6.942 10.388s2.436 8.048 2.436 12.253c0 4.204-0.828 8.368-2.436 12.253s-3.968 7.414-6.942 10.387l-105.399 105.36 128 128 210.761-210.76-557.28-557.241z" />
<glyph unicode="&#xe923;" glyph-name="search" d="M918.609 86.63l-200.282 200.239c58.048 69.692 86.997 159.083 80.819 249.572s-47.006 175.115-113.988 236.271c-66.982 61.155-154.965 94.132-245.641 92.072-90.679-2.061-177.072-39.001-241.207-103.136s-101.076-150.528-103.136-241.204c-2.061-90.679 30.917-178.658 92.072-245.641 61.155-66.987 145.78-107.81 236.271-113.988 90.488-6.178 179.879 22.767 249.571 80.815l200.239-200.277c2.974-2.974 6.502-5.333 10.389-6.942 3.883-1.609 8.047-2.436 12.25-2.436 4.207 0 8.371 0.828 12.254 2.436 3.887 1.609 7.415 3.968 10.389 6.942 2.97 2.97 5.329 6.502 6.938 10.385 1.609 3.887 2.441 8.047 2.441 12.254 0 4.203-0.832 8.367-2.441 12.254-1.609 3.883-3.968 7.411-6.938 10.385zM159.968 511.991c0 56.96 16.891 112.642 48.537 160.004s76.625 84.275 129.25 106.073c52.625 21.798 110.531 27.502 166.399 16.389s107.183-38.542 147.46-78.819c40.277-40.278 67.708-91.594 78.818-147.461 11.115-55.866 5.41-113.773-16.388-166.398s-58.709-97.604-106.074-129.25c-47.36-31.646-103.040-48.538-160.004-48.538-76.355 0.085-149.559 30.455-203.552 84.446s-84.362 127.198-84.447 203.554z" />
<glyph unicode="&#xe924;" glyph-name="ShareNetwork" d="M704.106 311.998c-21.376 0.007-42.511-4.502-62.018-13.235-19.511-8.737-36.952-21.497-51.182-37.445l-195.602 125.722c8.444 19.215 12.804 39.973 12.804 60.961 0 20.985-4.359 41.743-12.804 60.957l195.602 125.722c25.52-28.465 60.826-46.267 98.885-49.861s76.076 7.281 106.47 30.466c30.398 23.184 50.94 56.97 57.541 94.625 6.597 37.655-1.236 76.413-21.939 108.551s-52.754 55.293-89.768 64.854c-37.018 9.56-76.273 4.822-109.948-13.271-33.679-18.092-59.301-48.21-71.76-84.35-12.464-36.14-10.851-75.649 4.517-110.653l-195.599-125.721c-20.521 22.949-47.526 39.128-77.442 46.39-29.916 7.264-61.333 5.272-90.092-5.711-28.759-10.982-53.506-30.438-70.965-55.797-17.458-25.355-26.806-55.413-26.806-86.199s9.348-60.848 26.806-86.203c17.459-25.355 42.206-44.811 70.965-55.797 28.759-10.982 60.176-12.976 90.092-5.709 29.916 7.263 56.921 23.439 77.442 46.387l195.599-125.722c-13.129-29.992-16.223-63.422-8.825-95.316 7.402-31.894 24.901-60.544 49.898-81.69s56.152-33.653 88.832-35.664c32.68-2.011 65.134 6.583 92.533 24.503 27.403 17.92 48.285 44.211 59.538 74.957 11.257 30.742 12.284 64.3 2.929 95.678-9.351 31.375-28.588 58.895-54.843 78.457-26.251 19.562-58.119 30.128-90.862 30.117zM704.106 839.999c20.568 0 40.675-6.099 57.779-17.527s30.431-27.67 38.305-46.674c7.87-19.003 9.929-39.914 5.917-60.088s-13.919-38.705-28.464-53.25c-14.544-14.544-33.075-24.449-53.248-28.462s-41.084-1.953-60.091 5.918c-19.003 7.871-35.244 21.201-46.672 38.304s-17.529 37.21-17.529 57.779c0 27.583 10.96 54.035 30.464 73.539s45.956 30.461 73.538 30.461zM256.106 343.998c-20.569 0-40.677 6.1-57.779 17.529s-30.433 27.67-38.304 46.672c-7.872 19.003-9.931 39.914-5.918 60.091 4.013 20.173 13.918 38.704 28.462 53.248s33.076 24.452 53.25 28.464c20.174 4.012 41.085 1.953 60.089-5.917 19.003-7.874 35.246-21.204 46.674-38.305 11.428-17.104 17.527-37.211 17.527-57.779 0-27.582-10.957-54.038-30.461-73.541s-45.956-30.46-73.539-30.46zM704.106 55.998c-20.568 0-40.678 6.1-57.779 17.529-17.104 11.429-30.431 27.67-38.305 46.672-7.87 19.003-9.929 39.914-5.917 60.091 4.012 20.173 13.919 38.704 28.464 53.248s33.075 24.448 53.248 28.464c20.173 4.012 41.084 1.953 60.091-5.917 19.003-7.874 35.244-21.204 46.672-38.305 11.429-17.104 17.525-37.211 17.525-57.779 0-13.659-2.688-27.184-7.914-39.801s-12.888-24.082-22.546-33.741c-9.655-9.655-21.12-17.317-33.737-22.543-12.621-5.226-26.145-7.918-39.801-7.918z" />
<glyph unicode="&#xe925;" glyph-name="Star" d="M956.692 570.966c-4.004 12.299-11.551 23.139-21.704 31.154-10.148 8.015-22.446 12.847-35.338 13.886l-236.001 19.040-91.116 220.36c-4.931 12.007-13.317 22.278-24.095 29.507-10.783 7.228-23.47 11.088-36.448 11.088-12.979 0-25.665-3.859-36.445-11.088s-19.167-17.499-24.095-29.507l-91.040-220.32-236.12-19.080c-12.913-1.092-25.217-5.971-35.369-14.024s-17.703-18.925-21.705-31.25c-4.002-12.326-4.277-25.559-0.792-38.040s10.577-23.657 20.386-32.126l180-155.319-54.84-232.243c-3.067-12.616-2.316-25.861 2.158-38.047 4.473-12.191 12.468-22.779 22.969-30.413 10.501-7.639 23.034-11.986 36.008-12.488s25.806 2.867 36.865 9.667l202 124.324 202.12-124.324c11.064-6.723 23.869-10.020 36.803-9.482s25.421 4.895 35.886 12.513c10.465 7.624 18.442 18.171 22.922 30.316 4.485 12.145 5.274 25.344 2.268 37.934l-55.040 232.284 179.999 155.318c9.892 8.455 17.044 19.655 20.562 32.18s3.241 25.813-0.799 38.18zM895.329 549.086l-194.796-167.999c-4.444-3.83-7.752-8.806-9.554-14.387-1.807-5.581-2.043-11.551-0.686-17.254l59.52-251.197c0.154-0.348 0.169-0.742 0.041-1.096-0.128-0.358-0.384-0.655-0.722-0.824-0.722-0.563-0.922-0.44-1.521 0l-218.88 134.6c-5.043 3.098-10.844 4.736-16.761 4.736s-11.719-1.638-16.76-4.736l-218.88-134.682c-0.6-0.358-0.76-0.481-1.52 0-0.337 0.174-0.596 0.466-0.723 0.824s-0.111 0.748 0.043 1.096l59.52 251.197c1.356 5.709 1.119 11.679-0.687 17.254-1.806 5.581-5.11 10.557-9.553 14.387l-194.8 168.001c-0.48 0.4-0.92 0.76-0.52 2s0.72 1.080 1.32 1.16l255.68 20.64c5.864 0.503 11.476 2.614 16.219 6.1s8.432 8.212 10.661 13.66l98.48 238.44c0.319 0.68 0.44 1 1.4 1 0.957 0 1.080-0.32 1.398-1l98.724-238.44c2.248-5.449 5.96-10.17 10.726-13.643 4.762-3.473 10.394-5.562 16.271-6.036l255.683-20.64c0.599 0 0.957 0 1.316-1.16 0.364-1.16 0-1.6-0.64-2z" />
<glyph unicode="&#xe926;" glyph-name="Tiktok" d="M896 672c-50.906 0.054-99.709 20.298-135.706 56.294s-56.241 84.801-56.294 135.706c0 8.487-3.372 16.626-9.372 22.627s-14.141 9.373-22.628 9.373h-160c-8.486 0-16.627-3.372-22.628-9.373s-9.372-14.14-9.372-22.627v-528c-0.008-14.316-3.855-28.367-11.141-40.689-7.288-12.321-17.748-22.461-30.29-29.363s-26.706-10.312-41.014-9.874c-14.31 0.438-28.239 4.705-40.335 12.362-12.096 7.654-21.916 18.414-28.439 31.16-6.52 12.744-9.503 27.003-8.632 41.293 0.868 14.287 5.553 28.083 13.571 39.944 8.015 11.86 19.067 21.353 32 27.487 5.473 2.596 10.094 6.692 13.33 11.812s4.954 11.052 4.951 17.108v170.76c0.003 4.677-1.021 9.298-2.998 13.537s-4.859 7.995-8.445 11c-3.584 3.005-7.785 5.187-12.303 6.392-4.518 1.208-9.247 1.408-13.855 0.589-142.759-25.439-250.399-155.919-250.399-303.519 0-80.625 32.028-157.949 89.040-214.961s134.336-89.039 214.96-89.039c80.625 0 157.949 32.028 214.961 89.039s89.039 134.336 89.039 214.961v158.84c59.267-30.922 125.153-46.996 192-46.84 8.486 0 16.627 3.372 22.628 9.372s9.372 14.141 9.372 22.628v160c0 8.486-3.372 16.627-9.372 22.628s-14.141 9.372-22.628 9.372zM864 513.439c-62.536 5.542-122.414 27.86-173.32 64.602-4.785 3.441-10.427 5.491-16.302 5.929-5.878 0.438-11.761-0.755-17.004-3.448-5.24-2.693-9.636-6.781-12.703-11.814s-4.682-10.813-4.672-16.707v-216c0-63.652-25.285-124.698-70.295-169.705-45.007-45.010-106.053-70.295-169.705-70.295s-124.698 25.285-169.706 70.295c-45.009 45.007-70.294 106.053-70.294 169.705 0 103.601 66.56 196.521 160 230.4v-110.679c-20.685-13.821-37.437-32.768-48.625-54.989-11.185-22.223-16.423-46.963-15.201-71.813 1.221-24.847 8.858-48.955 22.17-69.975 13.309-21.018 31.839-38.228 53.78-49.956s46.546-17.569 71.416-16.957c24.87 0.612 49.16 7.657 70.497 20.449 21.34 12.79 38.999 30.892 51.261 52.539 12.26 21.647 18.703 46.103 18.701 70.981v496h97.999c7.196-56.363 32.901-108.743 73.080-148.92 40.177-40.179 92.557-65.884 148.92-73.080v-96.561z" />
<glyph unicode="&#xe927;" glyph-name="Townhouse" d="M852.040 857.6l-156.442-139.067v-104.3l156.442 139.067 156.436-139.067v104.3l-156.436 139.067zM694.84 567.715v-529.305h312.873v529.305l-156.436 139.067-156.436-139.067zM920.801 253.527v-152.105h-139.054v152.105c0 18.442 7.327 36.127 20.367 49.167 13.036 13.041 30.72 20.367 49.162 20.367 18.437 0 36.122-7.327 49.162-20.367s20.362-30.725 20.362-49.167zM886.042 509.933v-30.42h-69.53v30.42c0 9.221 3.661 18.064 10.184 24.584 6.518 6.52 15.36 10.183 24.581 10.183s18.063-3.663 24.581-10.183c6.518-6.52 10.184-15.363 10.184-24.584zM503.638 857.6l-156.438-139.067v-104.3l156.438 139.067 156.438-139.067v104.3l-156.438 139.067zM347.638 567.715v-529.305h312.872v529.305l-156.435 139.067-156.438-139.067zM573.604 253.527v-152.105h-139.056v152.105c0 18.442 7.325 36.127 20.364 49.167s30.724 20.367 49.164 20.367c18.441 0 36.125-7.327 49.166-20.367 13.036-13.041 20.362-30.725 20.362-49.167zM538.839 509.933v-30.42h-69.527v30.42c0 9.221 3.662 18.064 10.182 24.584s15.362 10.183 24.582 10.183c9.22 0 18.062-3.663 24.58-10.183 6.523-6.52 10.184-15.363 10.184-24.584zM156.438 857.6l-156.438-139.067v-104.3l156.438 139.067 156.437-139.067v104.3l-156.437 139.067zM0 567.733v-529.308h312.874v529.308l-156.437 139.067-156.438-139.067zM225.965 253.548v-152.095h-139.056v152.095c0 18.442 7.325 36.127 20.364 49.167s30.724 20.362 49.164 20.362c18.44 0 36.124-7.322 49.163-20.362s20.364-30.725 20.364-49.167zM191.201 509.951v-30.41h-69.528v30.41c0 9.221 3.663 18.063 10.182 24.584s15.362 10.183 24.582 10.183c9.22 0 18.062-3.663 24.582-10.183s10.182-15.363 10.182-24.584z" />
<glyph unicode="&#xe928;" glyph-name="Villa" d="M1006.884 665.203l-71.368 192.388c-3.103 4.655-9.308 9.309-15.514 9.309h-816.099c-6.206 0-12.412-4.655-15.515-9.309l-71.369-192.388c-1.552-4.655-1.552-9.309 1.552-13.964s7.758-6.206 12.412-6.206h319.612c3.103 0 7.757 1.551 9.309 3.103l148.946 122.57 141.186-122.57c3.103-3.103 6.211-4.655 10.865-4.655h332.022c4.654 0 9.308 3.103 12.411 6.206 3.103 6.206 4.654 10.861 1.551 15.515zM629.878 624.851l-57.405 49.649h-128.775l-62.061-51.2c-7.758-6.206-18.618-10.861-29.479-10.861h-263.758v-567.855c0-9.308 6.206-15.514 15.515-15.514h299.443v172.216c0 60.508 48.097 108.605 108.606 108.605s108.606-48.097 108.606-108.605v-172.216h299.443c7.757 0 15.514 6.205 15.514 15.514v567.855h-274.616c-12.411 0-23.276 4.655-31.032 12.412zM339.745 98.888c0-7.757-6.206-15.514-15.515-15.514h-145.842c-9.309 0-15.515 7.757-15.515 15.514v159.805c0 7.757 6.206 15.514 15.515 15.514h145.842c9.309 0 15.515-7.757 15.515-15.514v-159.805zM339.745 371.953c0-7.757-6.206-15.514-15.515-15.514h-145.842c-9.309 0-15.515 7.757-15.515 15.514v159.808c0 7.757 6.206 15.515 15.515 15.515h145.842c9.309 0 15.515-7.758 15.515-15.515v-159.808zM511.964 485.215c-32.582 0-58.958 26.376-58.958 58.957s26.376 58.958 58.958 58.958c32.584 0 58.957-26.376 58.957-58.958s-26.373-58.957-58.957-58.957zM685.732 531.761c0 7.757 6.205 15.515 15.519 15.515h145.838c7.762 0 15.519-7.758 15.519-15.515v-159.808c0-7.757-7.757-15.514-15.519-15.514h-145.838c-9.313 0-15.519 7.757-15.519 15.514v159.808zM685.732 258.693c0 7.757 6.205 15.514 15.519 15.514h145.838c7.762 0 15.519-7.757 15.519-15.514v-159.805c0-7.757-7.757-15.514-15.519-15.514h-145.838c-9.313 0-15.519 7.757-15.519 15.514v159.805z" />
<glyph unicode="&#xe929;" glyph-name="Warehouse" d="M960.016 216.005h-40.001v518.879l45.040 9.641c6.227 1.337 11.668 5.092 15.126 10.441 3.46 5.348 4.651 11.851 3.314 18.079s-5.092 11.668-10.441 15.127c-5.348 3.458-11.851 4.65-18.080 3.313l-896-191.999c-6.227-1.337-11.668-5.092-15.127-10.441s-4.65-11.853-3.313-18.080c1.337-6.227 5.092-11.67 10.441-15.128s11.852-4.649 18.079-3.312l34.96 7.479v-343.999h-40c-6.365 0-12.47-2.528-16.971-7.030s-7.029-10.604-7.029-16.971c0-6.365 2.528-12.469 7.029-16.971 4.501-4.5 10.605-7.028 16.971-7.028h896.001c6.365 0 12.469 2.528 16.969 7.028 4.502 4.502 7.030 10.606 7.030 16.971 0 6.367-2.528 12.469-7.030 16.971-4.5 4.502-10.604 7.030-16.969 7.030zM152.015 570.325l720 154.279v-508.599h-112v231.999c0 6.367-2.528 12.469-7.030 16.971-4.5 4.502-10.604 7.030-16.969 7.030h-448c-6.367 0-12.471-2.528-16.971-7.030-4.502-4.502-7.030-10.604-7.030-16.971v-231.999h-112v354.32zM712.015 344.005h-400v80h400v-80zM312.015 296.005h400v-80h-400v80z" />
<glyph unicode="&#xe92a;" glyph-name="X" d="M858.957 113.16l-250.399 393.521 247.081 271.8c5.586 6.299 8.466 14.547 8.015 22.955-0.453 8.408-4.201 16.3-10.432 21.963-6.234 5.663-14.446 8.642-22.858 8.29s-16.348-4.005-22.085-10.168l-235.361-258.881-161.961 254.521c-2.888 4.546-6.876 8.289-11.594 10.883-4.721 2.594-10.020 3.955-15.404 3.957h-192.001c-5.737 0.003-11.37-1.537-16.308-4.458s-9-7.117-11.76-12.146c-2.76-5.030-4.118-10.71-3.93-16.444s1.915-11.313 4.998-16.151l250.399-393.48-247.079-272c-2.885-3.1-5.127-6.74-6.595-10.714-1.468-3.971-2.132-8.195-1.956-12.426s1.192-8.384 2.985-12.219c1.794-3.837 4.331-7.278 7.465-10.127 3.134-2.847 6.802-5.046 10.791-6.464 3.989-1.421 8.221-2.035 12.449-1.807s8.37 1.293 12.184 3.131c3.814 1.841 7.225 4.419 10.035 7.588l235.36 258.88 161.961-254.52c2.911-4.508 6.909-8.212 11.628-10.772 4.718-2.557 10.004-3.889 15.373-3.868h192c5.729 0.003 11.356 1.544 16.289 4.462 4.931 2.918 8.988 7.109 11.748 12.134 2.76 5.023 4.119 10.696 3.935 16.422-0.182 5.729-1.9 11.302-4.974 16.141zM657.518 128l-407.28 640h116.001l407.439-640h-116.16z" />
<glyph unicode="&#xe92b;" glyph-name="Youtube" d="M657.761 474.639l-192 128c-4.82 3.215-10.424 5.064-16.212 5.343-5.788 0.282-11.543-1.014-16.653-3.75-5.107-2.734-9.377-6.804-12.355-11.779-2.975-4.972-4.544-10.657-4.541-16.453v-256c-0.003-5.796 1.567-11.482 4.541-16.453 2.977-4.974 7.247-9.044 12.355-11.779 5.11-2.737 10.865-4.032 16.653-3.753 5.788 0.282 11.392 2.127 16.212 5.345l192 128c4.388 2.921 7.987 6.881 10.478 11.528 2.488 4.649 3.791 9.838 3.791 15.112s-1.303 10.463-3.791 15.112c-2.491 4.646-6.090 8.607-10.478 11.528zM480 379.799v136.2l102.321-67.999-102.321-68.201zM937.321 681.92c-3.771 14.746-10.99 28.385-21.069 39.791s-22.723 20.252-36.892 25.809c-137.121 52.96-355.359 52.48-367.36 52.48s-230.241 0.48-367.36-52.48c-14.17-5.557-26.815-14.403-36.892-25.809s-17.299-25.045-21.068-39.791c-10.36-39.921-22.68-112.881-22.68-233.92s12.32-193.999 22.68-233.92c3.763-14.753 10.982-28.401 21.060-39.813s22.726-20.265 36.9-25.828c131.359-50.68 336.96-52.439 364.721-52.439h5.279c27.761 0 233.48 1.759 364.721 52.439 14.175 5.563 26.821 14.415 36.9 25.828s17.298 25.060 21.061 39.813c10.358 40 22.679 112.881 22.679 233.92s-12.321 193.999-22.679 233.92zM875.359 229.919c-1.219-4.908-3.581-9.454-6.899-13.274-3.315-3.817-7.491-6.792-12.18-8.686-126.6-48.878-341.919-48-344-48h-0.279c-2.161 0-217.321-0.799-344 48-4.689 1.894-8.863 4.869-12.18 8.686-3.316 3.82-5.681 8.366-6.9 13.274-9.72 36.521-20.92 103.8-20.92 218.081s11.2 181.56 20.64 217.879c1.196 4.938 3.551 9.518 6.869 13.366 3.318 3.845 7.504 6.848 12.211 8.755 122.080 47.16 326.639 48 343.399 48h1.080c2.161 0 217.521 0.72 344-48 4.69-1.892 8.863-4.869 12.18-8.686 3.315-3.817 5.681-8.366 6.899-13.274 9.521-36.48 20.721-103.759 20.721-218.040s-11.2-181.56-20.641-217.879v-0.202z" />
<glyph unicode="&#xe938;" glyph-name="check" horiz-adv-x="1088" d="M922.47 649.28l-512-512c-2.972-2.976-6.501-5.338-10.386-6.944-3.885-1.613-8.049-2.438-12.254-2.438s-8.369 0.826-12.254 2.438c-3.885 1.606-7.414 3.968-10.386 6.944l-224 224c-6.004 6.004-9.378 14.148-9.378 22.64s3.373 16.636 9.378 22.64c6.004 6.004 14.148 9.377 22.64 9.377s16.636-3.373 22.64-9.377l201.36-201.402 489.36 489.402c6.003 6.004 14.15 9.377 22.637 9.377 8.493 0 16.64-3.373 22.643-9.377s9.376-14.148 9.376-22.64c0-8.492-3.373-16.636-9.376-22.64z" />
</font>
</defs>
</svg>
